<svg xmlns="http://www.w3.org/2000/svg" width="20" height="20" fill="none"><path d="M10.857 1.668c.608-.003 1.216.003 1.824.018l.161.006c.187.006.371.015.594.025.886.041 1.491.181 2.022.387.55.212 1.013.499 1.477.962.424.416.751.92.96 1.476.207.53.346 1.136.388 2.023l.025.593.005.162c.015.608.021 1.216.02 1.823v1.714c.002.608-.004 1.216-.019 1.824l-.005.162-.025.593c-.042.886-.183 1.492-.388 2.022a4.07 4.07 0 0 1-.961 1.477c-.417.424-.92.752-1.477.96-.53.207-1.136.347-2.022.388-.223.01-.407.019-.594.025l-.161.005c-.608.015-1.216.022-1.824.02H9.143a66.03 66.03 0 0 1-1.824-.019l-.162-.005a51.073 51.073 0 0 1-.593-.025c-.887-.041-1.492-.183-2.024-.388a4.076 4.076 0 0 1-1.475-.961 4.086 4.086 0 0 1-.962-1.477c-.206-.53-.346-1.136-.388-2.022l-.024-.594-.005-.161a65.88 65.88 0 0 1-.02-1.824V9.143c-.003-.607.003-1.215.018-1.823l.006-.162c.006-.186.015-.371.025-.593.041-.887.181-1.492.387-2.023.21-.556.538-1.06.963-1.475a4.08 4.08 0 0 1 1.476-.963c.531-.206 1.135-.346 2.023-.387l.593-.025.162-.004a65.853 65.853 0 0 1 1.823-.021h1.713zM10 5.834a4.167 4.167 0 1 0 0 8.333 4.167 4.167 0 0 0 0-8.333zm0 1.667a2.5 2.5 0 1 1 0 4.999 2.5 2.5 0 1 1 0-5zm4.375-2.917a1.042 1.042 0 0 0 0 2.082 1.042 1.042 0 1 0 0-2.083v.001z" fill="currentColor"/></svg>