<svg xmlns="http://www.w3.org/2000/svg" width="20" height="20" fill="none"><path d="M10 1.667A8.336 8.336 0 0 0 1.667 10c0 4.6 3.733 8.333 8.333 8.333S18.333 14.6 18.333 10 14.6 1.667 10 1.667zm3.867 5.666c-.126 1.317-.667 4.517-.942 5.992-.117.625-.35.833-.567.858-.483.042-.85-.316-1.317-.625-.733-.483-1.15-.783-1.858-1.25-.825-.541-.291-.841.184-1.325.124-.125 2.258-2.066 2.3-2.241a.167.167 0 0 0-.042-.15c-.05-.042-.117-.025-.175-.017-.075.017-1.242.792-3.517 2.325-.333.225-.633.342-.9.333-.3-.008-.867-.166-1.292-.308-.524-.167-.933-.258-.9-.55.017-.15.225-.3.617-.458a374.4 374.4 0 0 1 4.858-2.092c2.317-.967 2.792-1.133 3.109-1.133.066 0 .225.016.325.1a.33.33 0 0 1 .117.225c-.009.05.008.2 0 .316z" fill="currentColor"/></svg>