<svg xmlns="http://www.w3.org/2000/svg" width="20" height="20" fill="none"><path fill-rule="evenodd" clip-rule="evenodd" d="M10 3.333c.712 0 1.443.019 2.152.049l.836.04.801.047.75.051.685.053a3.168 3.168 0 0 1 2.912 2.853l.033.354.063.758c.058.786.101 1.643.101 2.462 0 .82-.043 1.676-.101 2.462l-.063.758c-.01.122-.022.24-.033.354a3.168 3.168 0 0 1-2.913 2.853l-.683.052-.75.052-.802.047-.836.04a51.46 51.46 0 0 1-2.152.049 51.46 51.46 0 0 1-2.152-.049l-.837-.04-.8-.047-.75-.052-.685-.052a3.168 3.168 0 0 1-2.912-2.853l-.033-.354-.063-.758A33.884 33.884 0 0 1 1.667 10c0-.82.043-1.676.101-2.462l.063-.758c.01-.122.021-.24.033-.354a3.168 3.168 0 0 1 2.91-2.853l.685-.053.75-.05.802-.048.836-.04A51.396 51.396 0 0 1 10 3.333zM8.333 7.98v4.042a.5.5 0 0 0 .75.433l3.5-2.02a.5.5 0 0 0 0-.867l-3.5-2.02a.5.5 0 0 0-.75.433z" fill="currentColor"/></svg>