<svg width="24" height="24" fill="none" xmlns="http://www.w3.org/2000/svg"><path d="M12 3.2H2.4c-.675 0-1.2.563-1.2 1.2v14.4c0 .675.525 1.2 1.2 1.2h2.4v-2.4c0-1.313 1.05-2.4 2.4-2.4 1.312 0 2.4 1.088 2.4 2.4V20H12c.637 0 1.2-.525 1.2-1.2V4.4c0-.638-.563-1.2-1.2-1.2zM7.2 16.4c-.675 0-1.2.563-1.2 1.2V20h2.4v-2.4c0-.638-.563-1.2-1.2-1.2zm-4.8 4.8A2.37 2.37 0 0 1 0 18.8V4.4C0 3.087 1.05 2 2.4 2H12c1.313 0 2.4 1.087 2.4 2.4v14.4c0 1.35-1.088 2.4-2.4 2.4H2.4zm.9-15.6h1.8c.488 0 .9.413.9.9v1.8c0 .525-.412.9-.9.9H3.3c-.525 0-.9-.375-.9-.9V6.5c0-.487.375-.9.9-.9zM3.6 8h1.2V6.8H3.6V8zm4.8-1.5c0-.487.375-.9.9-.9h1.8c.488 0 .9.413.9.9v1.8c0 .525-.412.9-.9.9H9.3c-.525 0-.9-.375-.9-.9V6.5zm1.2.3V8h1.2V6.8H9.6zm-6.3 3.6h1.8c.488 0 .9.412.9.9v1.8c0 .525-.412.9-.9.9H3.3c-.525 0-.9-.375-.9-.9v-1.8c0-.488.375-.9.9-.9zm.3 2.4h1.2v-1.2H3.6v1.2zm4.8-1.5c0-.488.375-.9.9-.9h1.8c.488 0 .9.412.9.9v1.8c0 .525-.412.9-.9.9H9.3c-.525 0-.9-.375-.9-.9v-1.8zm1.2.3v1.2h1.2v-1.2H9.6zm13.8-2.4c.3 0 .6.3.6.6v.6c0 .938-.375 1.762-.938 2.4h.338c.3 0 .6.3.6.6v.6c0 .938-.375 1.762-.938 2.4h.338c.3 0 .6.3.6.6v.6a3.6 3.6 0 0 1-3.6 3.6h-1.2a3.6 3.6 0 0 1-3.6-3.6V17c0-.3.263-.6.6-.6h.3a3.582 3.582 0 0 1-.9-2.4v-.6c0-.3.263-.6.6-.6h.3a3.582 3.582 0 0 1-.9-2.4v-.6c0-.3.263-.6.6-.6h.6c1.238 0 2.325.638 3 1.613a3.548 3.548 0 0 1 3-1.613h.6zm-3 3.6c1.313 0 2.4-1.05 2.4-2.4-1.35 0-2.4 1.088-2.4 2.4zm-1.2 0c0-1.313-1.087-2.4-2.4-2.4 0 1.35 1.05 2.4 2.4 2.4zm.6 1.2h-.338c.113.15.226.3.338.412.075-.112.188-.262.3-.412h-.3zm0 4.012c.075-.112.188-.262.3-.412h-.638c.113.15.226.3.338.412zm.6-1.612c1.313 0 2.4-1.05 2.4-2.4-1.35 0-2.4 1.088-2.4 2.4zm-1.2 0c0-1.312-1.087-2.4-2.4-2.4 0 1.35 1.05 2.4 2.4 2.4zm1.2 3.6c1.313 0 2.4-1.05 2.4-2.4-1.35 0-2.4 1.087-2.4 2.4zm-1.2 0c0-1.313-1.087-2.4-2.4-2.4 0 1.35 1.05 2.4 2.4 2.4zm.6-16.8c.3 0 .6.3.6.6V8c0 .338-.3.6-.6.6a.592.592 0 0 1-.6-.6V3.8c0-.3.262-.6.6-.6zM22.2 5c.3 0 .6.3.6.6v1.8c0 .337-.3.6-.6.6a.592.592 0 0 1-.6-.6V5.6c0-.3.262-.6.6-.6zm-5.4 2.4V5.6c0-.3.262-.6.6-.6.3 0 .6.3.6.6v1.8c0 .337-.3.6-.6.6a.592.592 0 0 1-.6-.6z" fill="currentColor"/></svg>