<svg width="24" height="24" fill="none" xmlns="http://www.w3.org/2000/svg"><g clip-path="url(#a)"><path d="M.897 23.106a6.308 6.308 0 0 1 .818-3.04 6.363 6.363 0 0 1 5.477-3.203 6.363 6.363 0 0 1 5.477 3.203c.525.928.807 1.974.818 3.04M16.949 2.37V.964m4.798 3.133 1.151-.808m-10.751.808-1.151-.808M7.19 13.875a3.187 3.187 0 1 0 0-6.375 3.187 3.187 0 0 0 0 6.375zm13.246-5.203c.007-1.933-1.629-3.542-3.561-3.502-1.933.04-3.5 1.715-3.413 3.646a3.543 3.543 0 0 0 1.93 2.966v1.714a.389.389 0 0 0 .389.379h2.332a.388.388 0 0 0 .39-.379v-1.744a3.547 3.547 0 0 0 1.933-3.08z" stroke="currentColor" stroke-width="1.5" stroke-linecap="round" stroke-linejoin="round"/></g><defs><clipPath id="a"><path fill="#fff" d="M0 0h24v24H0z"/></clipPath></defs></svg>