<svg width="24" height="24" fill="none" xmlns="http://www.w3.org/2000/svg"><g clip-path="url(#a)" stroke="currentColor" stroke-width="1.5" stroke-linecap="round" stroke-linejoin="round"><path d="M14.571 8.571a1.714 1.714 0 1 0 0-3.428 1.714 1.714 0 0 0 0 3.428zM7.714 17.143a.857.857 0 1 0 0-1.714.857.857 0 0 0 0 1.714zM7.714 11.143a1.714 1.714 0 1 0 0-3.429 1.714 1.714 0 0 0 0 3.429z" fill="currentColor"/><path d="M16.32 21.052a1.715 1.715 0 0 0-1.114-1.51 3.43 3.43 0 0 1 1.08-6.685h3.205a3.429 3.429 0 0 0 3.24-4.577 11.143 11.143 0 1 0-10.508 14.863 10.803 10.803 0 0 0 2.983-.412 1.543 1.543 0 0 0 1.114-1.68z"/></g><defs><clipPath id="a"><path fill="#fff" d="M0 0h24v24H0z"/></clipPath></defs></svg>