<svg width="24" height="24" fill="none" xmlns="http://www.w3.org/2000/svg"><path d="M12.02 8.738c.302 1.229 1.715 3.763 4.964 4.071M1.286 18.888V5.878l2.15 1.72a6.122 6.122 0 0 0 3.824 1.34H12l2.216-4.43a3.061 3.061 0 0 1 2.738-1.692h1.169v3.827l4.592 1.53v1.531c0 1.69-1.37 3.061-3.061 3.061h-3.062v6.123a2.296 2.296 0 0 1-4.592 0v-.766a1.53 1.53 0 0 0-1.53-1.53H7.409a1.53 1.53 0 0 0-1.531 1.53v.766a2.296 2.296 0 0 1-4.592 0z" stroke="currentColor" stroke-width="1.5" stroke-linecap="round" stroke-linejoin="round"/></svg>