<svg width="24" height="24" xmlns="http://www.w3.org/2000/svg"><path d="M10.221 9.165C9.855 8.92 8.64 8.076 8.64 8.076c1.026-1.467 2.379-2.038 4.25-2.038 1.324 0 2.447.443 3.25 1.286.802.843 1.259 2.048 1.363 3.589.446.187.855.406 1.229.656 1.505 1.011 2.333 2.525 2.333 4.258 0 3.686-3.021 6.887-8.49 6.887C7.877 22.714 3 19.982 3 11.85 3 3.76 7.726 1 12.56 1c2.234 0 7.472.33 9.44 6.835l-1.846.479C18.63 3.679 15.435 2.94 12.508 2.94c-4.838 0-7.575 2.946-7.575 9.215 0 5.622 3.059 8.608 7.64 8.608 3.77 0 6.578-1.958 6.578-4.826 0-1.952-1.64-2.887-1.723-2.887-.32 1.675-1.178 4.493-4.946 4.493-2.195 0-4.089-1.518-4.089-3.505 0-2.836 2.693-3.863 4.818-3.863.795 0 1.756.054 2.257.154 0-.864-.733-2.345-2.579-2.345-1.696 0-2.125.55-2.669 1.178l.001.002zm3.25 2.95c-2.768 0-3.126 1.18-3.126 1.922 0 1.191 1.415 1.585 2.171 1.585 1.385 0 2.806-.383 3.03-3.288a8.417 8.417 0 0 0-2.074-.219z" fill="currentColor" fill-rule="nonzero"/></svg>