<svg xmlns="http://www.w3.org/2000/svg" width="38" height="38" viewBox="0 0 38 38" fill="none">
  <path d="M6.23248 13.3173C6.23248 11.4749 7.79383 9.87818 9.59539 9.87818C11.457 9.87818 12.9583 11.4749 12.9583 13.3173C12.9583 15.2211 11.457 16.7564 9.59539 16.7564C7.79383 16.7564 6.23248 15.2211 6.23248 13.3173ZM9.59539 11.8434C8.81471 11.8434 8.15414 12.5189 8.15414 13.3173C8.15414 14.177 8.81471 14.7912 9.59539 14.7912C10.4361 14.7912 11.0366 14.177 11.0366 13.3173C11.0366 12.5189 10.4361 11.8434 9.59539 11.8434ZM12.8382 5.70214C13.4387 5.94779 13.9792 6.25485 14.4596 6.62333L16.081 6.13203C16.4413 6.0092 16.8016 6.13203 17.0418 6.37768C18.0027 7.4831 18.7233 8.77276 19.2037 10.2467C19.3238 10.5537 19.2037 10.9222 18.9635 11.1678L17.7024 12.3347C17.7625 12.7031 17.7625 13.0716 17.7625 13.3787C17.7625 13.6857 17.7625 14.0542 17.7625 14.3613L18.9635 15.5281C19.2037 15.7738 19.3238 16.1422 19.2037 16.4493C18.7233 17.9232 18.0027 19.2129 17.0418 20.3183C16.8016 20.5639 16.4413 20.6868 16.081 20.5639L14.5797 20.0726C14.0392 20.5025 13.4387 20.871 12.8382 21.1166L12.4779 22.7134C12.3578 23.0818 12.1176 23.3275 11.8173 23.4503C11.0967 23.5731 10.3761 23.6345 9.59539 23.6345C8.87477 23.6345 8.15414 23.5731 7.43352 23.4503C7.13326 23.3275 6.89305 23.0818 6.77294 22.7134L6.41263 21.1166C5.81211 20.871 5.21159 20.5025 4.67112 20.0726L3.16982 20.5639C2.80951 20.6868 2.4492 20.5639 2.20899 20.3183C1.24816 19.2129 0.527534 17.9232 0.0471174 16.4493C-0.0729866 16.1422 0.0471174 15.7738 0.287326 15.5281L1.48837 14.3613C1.48837 14.0542 1.48837 13.6857 1.48837 13.3787C1.48837 13.0716 1.48837 12.7031 1.54842 12.3347L0.287326 11.1678C0.0471174 10.9222 -0.0729866 10.5537 0.0471174 10.2467C0.527534 8.77276 1.24816 7.4831 2.20899 6.37768C2.4492 6.13203 2.80951 6.0092 3.16982 6.13203L4.79123 6.62333C5.27164 6.25485 5.81211 5.94779 6.41263 5.70214L6.77294 3.9826C6.89305 3.61412 7.13326 3.36847 7.43352 3.24565C8.15414 3.12282 8.87477 3 9.59539 3C10.3761 3 11.0967 3.12282 11.8173 3.24565C12.1176 3.36847 12.3578 3.61412 12.4779 3.9826L12.8382 5.70214ZM3.53013 11.5977L3.41003 12.5803C3.41003 12.8874 3.34998 13.133 3.34998 13.3787C3.34998 13.6243 3.41003 13.87 3.41003 14.1156L3.53013 15.0982L2.08889 16.4493C2.38915 17.1862 2.74946 17.8618 3.22987 18.4759L5.09149 17.9232L5.87216 18.5373C6.29253 18.8444 6.71289 19.09 7.19331 19.3357L8.03404 19.7042L8.51445 21.6079C8.87477 21.6693 9.23508 21.6693 9.59539 21.6693C10.0158 21.6693 10.3761 21.6693 10.7364 21.6079L11.2168 19.7042L12.0575 19.3357C12.5379 19.09 12.9583 18.8444 13.3787 18.5373L14.1593 17.9232L16.021 18.4759C16.5014 17.8618 16.8617 17.1862 17.1619 16.4493L15.7207 15.0982L15.8408 14.1156C15.8408 13.87 15.8408 13.6243 15.8408 13.3787C15.8408 13.133 15.8408 12.8874 15.8408 12.5803L15.7207 11.5977L17.1619 10.2467C16.8617 9.50971 16.5014 8.83417 16.021 8.22005L14.0993 8.77276L13.3186 8.22005C12.9583 7.91298 12.5379 7.66734 12.1176 7.4831L11.2168 7.11462L10.7364 5.08802C10.3761 5.02661 10.0158 4.96519 9.59539 4.96519C9.23508 4.96519 8.87477 5.02661 8.51445 5.08802L8.03404 7.11462L7.13326 7.4831C6.71289 7.66734 6.29253 7.91298 5.93222 8.22005L5.15154 8.77276L3.22987 8.22005C2.74946 8.83417 2.38915 9.50971 2.08889 10.2467L3.53013 11.5977ZM27.9113 20.6868C29.7128 20.6868 31.2742 22.2835 31.2742 24.1258C31.2742 26.0296 29.7128 27.5649 27.9113 27.5649C26.0496 27.5649 24.5483 26.0296 24.5483 24.1258C24.5483 22.2835 26.0496 20.6868 27.9113 20.6868ZM29.3525 24.1258C29.3525 23.3275 28.6919 22.6519 27.9113 22.6519C27.0705 22.6519 26.47 23.3275 26.47 24.1258C26.47 24.9856 27.0705 25.5997 27.9113 25.5997C28.6919 25.5997 29.3525 24.9856 29.3525 24.1258ZM35.3577 27.4421C35.1175 28.0562 34.8172 28.6089 34.4569 29.1002L34.9373 30.7584C35.0574 31.1268 34.9373 31.4953 34.6971 31.741C33.6162 32.7236 32.3551 33.4605 30.9139 33.9518C30.6136 34.0746 30.2533 33.9518 30.0131 33.7062L28.812 32.4165C28.5118 32.4779 28.1515 32.4779 27.8512 32.4779C27.5509 32.4779 27.1906 32.4779 26.8904 32.4779L25.7494 33.7062C25.5092 33.9518 25.1489 34.0746 24.8486 33.9518C23.4074 33.4605 22.1463 32.7236 21.0653 31.741C20.8251 31.4953 20.705 31.1268 20.8251 30.7584L21.3055 29.2231C20.8852 28.6704 20.5249 28.0562 20.2846 27.4421L18.7233 27.0736C18.363 26.9508 18.1228 26.7052 18.0027 26.3367C17.8826 25.6611 17.8225 24.9242 17.8225 24.1258C17.8225 23.3889 17.8826 22.6519 18.0027 21.915C18.1228 21.6079 18.363 21.3009 18.7233 21.2395L20.2846 20.871C20.5249 20.2569 20.8852 19.6427 21.3055 19.09L20.8251 17.5547C20.705 17.1862 20.8251 16.8178 21.0653 16.5721C22.1463 15.5895 23.4074 14.8526 24.8486 14.3613C25.1489 14.2385 25.5092 14.3613 25.7494 14.6069L26.8904 15.8352C27.1906 15.8352 27.5509 15.7738 27.8512 15.7738C28.1515 15.7738 28.5118 15.8352 28.812 15.8352L30.0131 14.6069C30.2533 14.3613 30.6136 14.2385 30.9139 14.3613C32.3551 14.8526 33.6162 15.5895 34.6971 16.5721C34.9373 16.8178 35.0574 17.1862 34.9373 17.5547L34.4569 19.2129C34.8172 19.7042 35.1175 20.2569 35.3577 20.871L37.0392 21.2395C37.3995 21.3009 37.6397 21.6079 37.7598 21.915C37.8799 22.6519 38 23.3889 38 24.1258C38 24.9242 37.8799 25.6611 37.7598 26.3367C37.6397 26.7052 37.3995 26.9508 37.0392 27.0736L35.3577 27.4421ZM29.5927 17.9232L28.6319 17.8004C28.3316 17.8004 28.0914 17.739 27.8512 17.739C27.611 17.739 27.3708 17.8004 27.1306 17.8004L26.1697 17.9232L24.8486 16.4493C24.128 16.7564 23.4674 17.1248 22.8669 17.6161L23.4074 19.5199L22.8068 20.3183C22.5066 20.6868 22.2664 21.1781 22.0262 21.6693L21.6658 22.5291L19.8042 23.0204C19.7442 23.3889 19.7442 23.7574 19.7442 24.1258C19.7442 24.5557 19.7442 24.9242 19.8042 25.2927L21.6658 25.784L22.0262 26.6437C22.2664 27.135 22.5066 27.5649 22.8068 27.9948L23.4074 28.7932L22.8669 30.697C23.4674 31.1883 24.128 31.5567 24.8486 31.8638L26.1697 30.3899L27.1306 30.5127C27.3708 30.5127 27.611 30.5127 27.8512 30.5127C28.0914 30.5127 28.3316 30.5127 28.6319 30.5127L29.5927 30.3899L30.9139 31.8638C31.6345 31.5567 32.2951 31.1883 32.8956 30.697L32.3551 28.7318L32.8956 27.9334C33.1958 27.5649 33.436 27.135 33.6162 26.7052L33.9765 25.784L35.9582 25.2927C36.0183 24.9242 36.0783 24.5557 36.0783 24.1258C36.0783 23.7574 36.0183 23.3889 35.9582 23.0204L33.9765 22.5291L33.6162 21.6079C33.436 21.1781 33.1958 20.7482 32.8956 20.3797L32.3551 19.5813L32.8956 17.6161C32.2951 17.1248 31.6345 16.7564 30.9139 16.4493L29.5927 17.9232Z" fill="currentColor"/>
</svg>