<svg width="23" height="20" fill="none" xmlns="http://www.w3.org/2000/svg"><path d="M11.375 18a.58.58 0 0 0 .35-.15l8.2-8.2c.2-.2.346-.425.438-.675a2.141 2.141 0 0 0 0-1.513 1.633 1.633 0 0 0-.438-.637l-4.25-4.25a1.646 1.646 0 0 0-.638-.437 2.153 2.153 0 0 0-1.51 0 1.86 1.86 0 0 0-.676.437l-.275.275 1.85 1.875c.25.233.434.5.55.8.117.3.175.617.175.95 0 .7-.237 1.288-.712 1.763-.474.475-1.062.713-1.763.712-.333 0-.654-.058-.962-.175a2.286 2.286 0 0 1-.813-.525L9.025 6.4 4.65 10.775a.49.49 0 0 0-.15.35c0 .133.05.254.15.363a.444.444 0 0 0 .55.112.582.582 0 0 0 .15-.1l3.4-3.4 1.4 1.4-3.375 3.4a.49.49 0 0 0-.15.35c0 .133.05.25.15.35.1.1.217.15.35.15a.582.582 0 0 0 .35-.15l3.4-3.375 1.4 1.4-3.375 3.4a.297.297 0 0 0-.112.15.59.59 0 0 0-.038.2c0 .133.05.25.15.35a.48.48 0 0 0 .7 0L13 12.35l1.4 1.4-3.4 3.4a.49.49 0 0 0-.15.35c0 .133.055.25.163.35.109.1.23.15.362.15zm-.025 2a2.438 2.438 0 0 1-1.637-.612 2.39 2.39 0 0 1-.838-1.538 2.465 2.465 0 0 1-1.425-.7 2.465 2.465 0 0 1-.7-1.425 2.373 2.373 0 0 1-1.412-.712A2.548 2.548 0 0 1 4.65 13.6a2.377 2.377 0 0 1-1.55-.825c-.4-.467-.6-1.017-.6-1.65a2.529 2.529 0 0 1 .725-1.775l5.8-5.775L12.3 6.85c.034.05.084.088.15.113a.544.544 0 0 0 .2.037c.15 0 .275-.046.375-.137.1-.091.15-.212.15-.363a.558.558 0 0 0-.038-.2.304.304 0 0 0-.112-.15L9.45 2.575a1.647 1.647 0 0 0-.637-.437 2.153 2.153 0 0 0-1.513 0 1.86 1.86 0 0 0-.675.437L3.1 6.125c-.15.15-.275.325-.375.525-.1.2-.166.4-.2.6a1.891 1.891 0 0 0 .2 1.2L1.275 9.9A3.977 3.977 0 0 1 .65 8.638a3.928 3.928 0 0 1 .2-2.75c.2-.441.475-.837.825-1.188L5.2 1.175C5.6.792 6.046.5 6.538.3 7.03.1 7.534 0 8.05 0c.517 0 1.021.1 1.513.3.492.2.93.492 1.312.875l.275.275.275-.275c.4-.383.846-.675 1.338-.875.492-.2.996-.3 1.512-.3.517 0 1.021.1 1.513.3.492.2.93.492 1.312.875L21.325 5.4c.384.383.675.825.875 1.325a3.983 3.983 0 0 1 0 3.038c-.2.492-.491.93-.875 1.312l-8.2 8.175a2.595 2.595 0 0 1-.812.55 2.4 2.4 0 0 1-.963.2z" fill="currentColor"/></svg>