<svg xmlns="http://www.w3.org/2000/svg" width="24" height="24" fill="none"><path fill-rule="evenodd" clip-rule="evenodd" d="M3.75 7.5A3.75 3.75 0 0 1 7.5 3.75h9a3.75 3.75 0 0 1 3.75 3.75v9a3.75 3.75 0 0 1-3.75 3.75h-9a3.75 3.75 0 0 1-3.75-3.75v-9zM7.5 2.25A5.25 5.25 0 0 0 2.25 7.5v9c0 2.9 2.35 5.25 5.25 5.25h9c2.9 0 5.25-2.35 5.25-5.25v-9c0-2.9-2.35-5.25-5.25-5.25h-9zm9.45 4.05a.75.75 0 0 0 0 1.5h.009a.75.75 0 0 0 0-1.5h-.009zm-6.224 3.131a2.85 2.85 0 1 1 2.626 5.06 2.85 2.85 0 0 1-2.626-5.06zm1.951-1.773a4.35 4.35 0 1 0-1.276 8.606 4.35 4.35 0 0 0 1.276-8.606z" fill="currentColor"/></svg>