<svg xmlns="http://www.w3.org/2000/svg" width="24" height="24" fill="none"><path fill-rule="evenodd" clip-rule="evenodd" d="M19.982 5.874a1.343 1.343 0 0 0-1.847-1.456L2.82 10.866c-1.067.45-1.122 1.993 0 2.459 1.111.463 2.239.886 3.38 1.27 1.046.345 2.187.665 3.101.755.25.3.564.588.885.851.49.403 1.079.818 1.688 1.215 1.22.797 2.573 1.56 3.484 2.055 1.09.591 2.395-.09 2.59-1.277l2.033-12.32zM4.538 12.086l13.544-5.703-1.897 11.499a50.187 50.187 0 0 1-3.331-1.965c-.53-.34-1.04-.707-1.53-1.1a7.086 7.086 0 0 1-.382-.335l3.547-3.547a.896.896 0 1 0-1.266-1.267l-3.884 3.884c-.657-.084-1.573-.328-2.577-.659-.749-.25-1.49-.519-2.223-.808l-.001.001z" fill="currentColor"/></svg>