<svg xmlns="http://www.w3.org/2000/svg" width="26" height="24" fill="none"><path d="m24.945 7.682-.008-.009a.786.786 0 0 0-1.075 0v.001l-3.46 3.496-1.47-1.47a.786.786 0 0 0-1.075 0 .739.739 0 0 0 0 1.038l2.027 2.026c.15.151.345.194.519.194a.713.713 0 0 0 .519-.194l4.015-4.015c.288-.288.277-.753.008-1.067zm-6.982 12.257a6.685 6.685 0 0 0-6.68-6.68h-3.79c-3.687 0-6.643 2.995-6.643 6.68 0 .796.63 1.426 1.426 1.426H16.5c.79 0 1.463-.624 1.463-1.426zm-1.501-.075H2.352c.04-2.812 2.323-5.104 5.14-5.104h3.791c2.82 0 5.138 2.294 5.179 5.104zM4.452 6.804a4.939 4.939 0 0 0 4.955 4.954c2.709 0 4.953-2.206 4.953-4.954 0-2.71-2.243-4.954-4.953-4.954-2.749 0-4.954 2.245-4.954 4.954zm1.502 0c0-1.87 1.547-3.453 3.453-3.453 1.868 0 3.452 1.584 3.452 3.453 0 1.905-1.583 3.453-3.452 3.453a3.454 3.454 0 0 1-3.453-3.453z" fill="currentColor" stroke="currentColor" stroke-width=".3"/></svg>