<svg width="121" height="202" viewBox="0 0 121 202" fill="none" xmlns="http://www.w3.org/2000/svg">
<g clip-path="url(#clip0_901_30389)">
<path fill-rule="evenodd" clip-rule="evenodd" d="M75.9729 -5L75.9729 43.0429C75.9729 58.2037 82.6451 72.9365 95.0516 82.336C108.423 92.4632 116.998 108.146 116.998 125.738C116.998 158.268 87.513 184.421 52.705 180.706C25.1498 177.778 4.46328 157.584 1.83727 131.131C-0.0473785 112.195 8.08075 94.9885 21.7199 83.7827C34.1801 73.5528 40.4414 57.9725 40.4414 42.2553L40.4414 -5L75.9729 -5Z" fill="white"/>
<path fill-rule="evenodd" clip-rule="evenodd" d="M59.2019 154.758C75.1723 154.758 88.1416 142.328 88.1416 127.022C88.1416 111.801 75.1723 99.4395 59.2019 99.4395C43.3119 99.4395 30.423 111.801 30.423 127.022C30.423 142.328 43.3119 154.758 59.2019 154.758Z" fill="#0A77B1"/>
</g>
<defs>
<clipPath id="clip0_901_30389">
<rect width="121" height="202" fill="white"/>
</clipPath>
</defs>
</svg>
