<svg width="250" height="57" viewBox="0 0 250 57" fill="none" xmlns="http://www.w3.org/2000/svg">
<g clip-path="url(#clip0_1162_4390)">
<path d="M69.2212 31.8004C70.0494 31.3337 70.7023 30.6894 71.1805 29.8667C71.6581 29.0443 71.8974 28.126 71.8974 27.1112C71.8974 26.0961 71.6581 25.1775 71.1805 24.3555C70.7023 23.5331 70.0494 22.8884 69.2212 22.4218C68.393 21.9554 67.4663 21.7221 66.4401 21.7221C65.4138 21.7221 64.4834 21.9554 63.6502 22.4218C62.8163 22.8884 62.1604 23.5331 61.6822 24.3555C61.2039 25.1775 60.9649 26.0961 60.9649 27.1112C60.9649 28.126 61.2039 29.0443 61.6822 29.8667C62.1604 30.6894 62.8163 31.3337 63.6502 31.8004C64.4834 32.267 65.4138 32.5 66.4401 32.5C67.4663 32.5 68.393 32.267 69.2212 31.8004ZM63.1864 32.5088C62.2184 31.9663 61.4576 31.2227 60.9039 30.278C60.3496 29.3333 60.0728 28.2776 60.0728 27.1112C60.0728 25.9449 60.3496 24.8892 60.9039 23.9441C61.4576 22.9994 62.2184 22.2555 63.1864 21.7134C64.1543 21.171 65.2389 20.8994 66.4401 20.8994C67.6409 20.8994 68.7255 21.1683 69.6934 21.7047C70.6614 22.2411 71.4222 22.9816 71.9765 23.9267C72.5299 24.8714 72.807 25.9332 72.807 27.1112C72.807 28.2893 72.5299 29.3507 71.9765 30.2958C71.4222 31.2402 70.6614 31.9811 69.6934 32.5178C68.7255 33.0542 67.6409 33.3224 66.4401 33.3224C65.2389 33.3224 64.1543 33.0512 63.1864 32.5088Z" fill="#1D1D1B"/>
<path d="M82.8371 27.5659C83.5251 26.9946 83.869 26.178 83.869 25.1162C83.869 24.0552 83.5251 23.2355 82.8371 22.6582C82.1487 22.0809 81.1519 21.7919 79.8458 21.7919H76.3478V28.4235H79.8458C81.1519 28.4235 82.1487 28.1375 82.8371 27.5659ZM83.4668 22.0809C84.3412 22.8097 84.7786 23.8218 84.7786 25.1162C84.7786 26.3996 84.3412 27.4057 83.4668 28.1345C82.5924 28.8637 81.3852 29.2281 79.8458 29.2281H76.3478V33.235H75.4556V20.9873H79.8458C81.3852 20.9873 82.5924 21.3521 83.4668 22.0809Z" fill="#1D1D1B"/>
<path d="M95.6464 32.4304V33.235H87.1978V20.9873H95.3843V21.7922H88.0899V26.6212H94.6144V27.4087H88.0899V32.4304H95.6464Z" fill="#1D1D1B"/>
<path d="M107.902 20.9873V33.235H107.167L98.8233 22.5968V33.235H97.9312V20.9873H98.6832L107.01 31.6251V20.9873H107.902Z" fill="#1D1D1B"/>
<path d="M121.44 32.4304C122.571 32.4304 123.568 32.2058 124.431 31.7565C125.294 31.3076 125.958 30.6804 126.425 29.8758C126.892 29.0708 127.125 28.1492 127.125 27.1113C127.125 26.073 126.892 25.1514 126.425 24.3468C125.958 23.5416 125.294 22.915 124.431 22.4658C123.568 22.0169 122.571 21.7922 121.44 21.7922H117.557V32.4304H121.44ZM116.665 20.9873H121.51C122.781 20.9873 123.909 21.2495 124.895 21.7748C125.88 22.2995 126.647 23.0256 127.195 23.9529C127.743 24.8802 128.017 25.9332 128.017 27.1113C128.017 28.2894 127.743 29.3421 127.195 30.2694C126.647 31.1967 125.88 31.9228 124.895 32.4478C123.909 32.9725 122.781 33.235 121.51 33.235H116.665V20.9873Z" fill="#1D1D1B"/>
<path d="M137.51 29.036L134.291 21.9672L131.09 29.036H137.51ZM137.842 29.7883H130.74L129.183 33.235H128.221L133.854 20.9873H134.746L140.378 33.235H139.416L137.842 29.7883Z" fill="#1D1D1B"/>
<path d="M143.284 21.7919H138.876V20.9873H148.584V21.7919H144.176V33.235H143.284V21.7919Z" fill="#1D1D1B"/>
<path d="M156.361 29.036L153.142 21.9672L149.941 29.036H156.361ZM156.693 29.7883H149.591L148.035 33.235H147.072L152.705 20.9873H153.597L159.229 33.235H158.267L156.693 29.7883Z" fill="#1D1D1B"/>
<path d="M168.08 22.5093H163.882V20.9873H174.009V22.5093H169.811V33.235H168.08V22.5093Z" fill="#1D1D1B"/>
<path d="M183.11 31.2059C183.828 30.7975 184.393 30.2346 184.807 29.5172C185.221 28.7998 185.428 27.9982 185.428 27.1115C185.428 26.2254 185.221 25.4231 184.807 24.7054C184.393 23.9883 183.828 23.4257 183.11 23.0171C182.393 22.6087 181.585 22.4049 180.688 22.4049C179.79 22.4049 178.976 22.6087 178.247 23.0171C177.518 23.4257 176.947 23.9883 176.533 24.7054C176.119 25.4231 175.912 26.2254 175.912 27.1115C175.912 27.9982 176.119 28.7998 176.533 29.5172C176.947 30.2346 177.518 30.7975 178.247 31.2059C178.976 31.6142 179.79 31.818 180.688 31.818C181.585 31.818 182.393 31.6142 183.11 31.2059ZM177.347 32.5616C176.355 32.0195 175.577 31.2699 175.011 30.3134C174.446 29.357 174.163 28.2899 174.163 27.1115C174.163 25.9334 174.446 24.8663 175.011 23.9095C175.577 22.9534 176.355 22.2034 177.347 21.661C178.338 21.1189 179.452 20.8477 180.688 20.8477C181.912 20.8477 183.02 21.1189 184.011 21.661C185.002 22.2034 185.778 22.9503 186.338 23.9008C186.897 24.8515 187.177 25.9217 187.177 27.1115C187.177 28.3013 186.897 29.3714 186.338 30.3221C185.778 31.2729 185.002 32.0195 184.011 32.5616C183.02 33.104 181.912 33.3756 180.688 33.3756C179.452 33.3756 178.338 33.104 177.347 32.5616Z" fill="#1D1D1B"/>
<path d="M190.354 32.9468C189.497 32.6612 188.824 32.2907 188.334 31.8361L188.981 30.471C189.447 30.8911 190.045 31.2323 190.774 31.4945C191.503 31.757 192.252 31.8884 193.022 31.8884C194.036 31.8884 194.794 31.7164 195.296 31.3721C195.797 31.0282 196.048 30.5702 196.048 29.9986C196.048 29.5786 195.911 29.2376 195.637 28.9751C195.363 28.7126 195.025 28.5115 194.622 28.3717C194.22 28.2315 193.652 28.074 192.917 27.899C191.995 27.6774 191.252 27.4558 190.686 27.2342C190.121 27.0129 189.637 26.6713 189.235 26.2106C188.832 25.7497 188.631 25.1288 188.631 24.3473C188.631 23.6939 188.803 23.1049 189.147 22.5799C189.491 22.0552 190.013 21.6352 190.713 21.32C191.412 21.0052 192.281 20.8477 193.319 20.8477C194.042 20.8477 194.754 20.9412 195.453 21.1276C196.153 21.3147 196.753 21.5829 197.255 21.9325L196.678 23.3322C196.164 23.006 195.616 22.7579 195.033 22.5889C194.45 22.42 193.879 22.3352 193.319 22.3352C192.328 22.3352 191.584 22.5162 191.089 22.8776C190.593 23.239 190.346 23.706 190.346 24.2773C190.346 24.6973 190.486 25.0383 190.766 25.3004C191.045 25.5633 191.392 25.7674 191.806 25.9133C192.22 26.0591 192.783 26.2137 193.494 26.3766C194.415 26.5982 195.156 26.8205 195.715 27.0417C196.275 27.2633 196.756 27.6016 197.159 28.0565C197.561 28.5115 197.762 29.124 197.762 29.8937C197.762 30.5354 197.587 31.1217 197.237 31.6521C196.888 32.1831 196.357 32.6032 195.645 32.9119C194.934 33.221 194.06 33.3756 193.022 33.3756C192.1 33.3756 191.212 33.2331 190.354 32.9468Z" fill="#1D1D1B"/>
<path d="M202.159 32.5616C201.174 32.0195 200.401 31.2729 199.841 30.3221C199.281 29.3714 199.001 28.3013 199.001 27.1115C199.001 25.9217 199.281 24.8515 199.841 23.9008C200.401 22.9503 201.176 22.2037 202.168 21.661C203.158 21.1189 204.267 20.8477 205.491 20.8477C206.447 20.8477 207.322 21.0079 208.115 21.3287C208.908 21.6496 209.584 22.125 210.144 22.7546L209.007 23.8569C208.086 22.8887 206.937 22.4049 205.561 22.4049C204.652 22.4049 203.829 22.6091 203.095 23.0171C202.36 23.4257 201.786 23.9883 201.372 24.7054C200.958 25.4231 200.751 26.2254 200.751 27.1115C200.751 27.9982 200.958 28.7998 201.372 29.5172C201.786 30.2346 202.36 30.7975 203.095 31.2059C203.829 31.6142 204.652 31.818 205.561 31.818C206.926 31.818 208.074 31.3282 209.007 30.3483L210.144 31.4509C209.584 32.0805 208.905 32.5589 208.106 32.8855C207.307 33.212 206.43 33.3756 205.474 33.3756C204.249 33.3756 203.144 33.104 202.159 32.5616Z" fill="#1D1D1B"/>
<path d="M219.798 28.7735L217.157 22.7722L214.515 28.7735H219.798ZM220.41 30.1731H213.903L212.556 33.2353H210.755L216.3 20.9873H218.031L223.594 33.2353H221.757L220.41 30.1731Z" fill="#1D1D1B"/>
<path d="M235.635 20.9873V33.235H234.201L226.854 24.1018V33.235H225.105V20.9873H226.539L233.886 30.1205V20.9873H235.635Z" fill="#1D1D1B"/>
<path d="M246.181 28.7735L243.54 22.7722L240.899 28.7735H246.181ZM246.793 30.1731H240.286L238.94 33.2353H237.138L242.683 20.9873H244.415L249.977 33.2353H248.14L246.793 30.1731Z" fill="#1D1D1B"/>
<path d="M65.2078 43.3959L64.1222 40.9298L63.0366 43.3959H65.2078ZM65.4595 43.9712H62.7849L62.2316 45.2297H61.4912L63.7699 40.1963H64.4818L66.7676 45.2297H66.0128L65.4595 43.9712Z" fill="#1D1D1B"/>
<path d="M72.5658 42.7884C72.8054 42.5943 72.925 42.3151 72.925 41.9506C72.925 41.5862 72.8054 41.307 72.5658 41.1129C72.3258 40.9188 71.9786 40.8219 71.5234 40.8219H70.3011V43.0794H71.5234C71.9786 43.0794 72.3258 42.9825 72.5658 42.7884ZM73.0832 40.6636C73.4569 40.9754 73.644 41.4042 73.644 41.9506C73.644 42.4971 73.4569 42.9262 73.0832 43.2377C72.7095 43.5495 72.1964 43.705 71.5449 43.705H70.3011V45.2294H69.5825V40.1963H71.5449C72.1964 40.1963 72.7095 40.3518 73.0832 40.6636Z" fill="#1D1D1B"/>
<path d="M80.355 44.6038V45.2294H76.7031V40.1963H80.2544V40.8219H77.422V42.3677H79.9451V42.9789H77.422V44.6038H80.355Z" fill="#1D1D1B"/>
<path d="M86.4198 42.7921C86.6594 42.5953 86.779 42.3151 86.779 41.9506C86.779 41.5862 86.6594 41.307 86.4198 41.1129C86.1798 40.9188 85.8326 40.8219 85.3774 40.8219H84.1551V43.0868H85.3774C85.8326 43.0868 86.1798 42.9886 86.4198 42.7921ZM86.8008 45.2297L85.7149 43.6836C85.5809 43.6933 85.4756 43.698 85.3989 43.698H84.1551V45.2297H83.4365V40.1963H85.3989C86.0504 40.1963 86.5635 40.3522 86.9372 40.6636C87.3109 40.9754 87.498 41.4042 87.498 41.9506C87.498 42.3389 87.4021 42.6698 87.2104 42.943C87.0187 43.2162 86.7455 43.415 86.3909 43.5397L87.5844 45.2297H86.8008Z" fill="#1D1D1B"/>
<path d="M91.7226 40.8219H89.9976V40.1963H94.1595V40.8219H92.4341V45.2294H91.7226V40.8219Z" fill="#1D1D1B"/>
<path d="M97.7072 40.1963H96.9883V45.2297H97.7072V40.1963Z" fill="#1D1D1B"/>
<path d="M101.772 44.4282C101.86 44.5218 101.904 44.6381 101.904 44.7769C101.904 44.849 101.896 44.9184 101.879 44.9854C101.863 45.0525 101.83 45.1557 101.782 45.2948L101.445 46.2942H100.992L101.258 45.2228C101.166 45.1896 101.094 45.1332 101.038 45.0538C100.983 44.9747 100.956 44.8825 100.956 44.7769C100.956 44.6331 101.001 44.5157 101.093 44.4245C101.183 44.3337 101.298 44.2881 101.438 44.2881C101.571 44.2881 101.683 44.335 101.772 44.4282Z" fill="#1D1D1B"/>
<path d="M111.25 44.6038C111.657 44.6038 112.015 44.525 112.325 44.3665C112.634 44.2082 112.872 43.9866 113.04 43.7017C113.207 43.4164 113.291 43.0868 113.291 42.7127C113.291 42.3389 113.207 42.0093 113.04 41.724C112.872 41.4391 112.634 41.2171 112.325 41.0592C112.015 40.9006 111.657 40.8219 111.25 40.8219H109.891V44.6038H111.25ZM109.172 40.1963H111.293C111.825 40.1963 112.297 40.3016 112.709 40.5124C113.121 40.7236 113.441 41.0197 113.669 41.4005C113.896 41.7817 114.01 42.2192 114.01 42.7127C114.01 43.2065 113.896 43.644 113.669 44.0248C113.441 44.406 113.121 44.7024 112.709 44.9132C112.297 45.1241 111.825 45.2294 111.293 45.2294H109.172V40.1963Z" fill="#1D1D1B"/>
<path d="M117.875 40.1963H117.156V45.2297H117.875V40.1963Z" fill="#1D1D1B"/>
<path d="M121.811 45.1111C121.459 44.9934 121.182 44.8412 120.981 44.6545L121.247 44.0936C121.439 44.2659 121.684 44.4061 121.984 44.5143C122.283 44.622 122.591 44.6759 122.908 44.6759C123.325 44.6759 123.636 44.6052 123.843 44.4637C124.048 44.3222 124.151 44.1342 124.151 43.8995C124.151 43.7268 124.095 43.5864 123.983 43.4788C123.87 43.3711 123.731 43.2883 123.565 43.2307C123.4 43.1733 123.167 43.1083 122.865 43.0366C122.486 42.9454 122.181 42.8545 121.948 42.7633C121.716 42.6725 121.517 42.532 121.352 42.3426C121.186 42.1535 121.104 41.8981 121.104 41.5769C121.104 41.3084 121.174 41.0663 121.316 40.8507C121.457 40.6348 121.671 40.4625 121.959 40.3328C122.247 40.2034 122.603 40.1387 123.03 40.1387C123.327 40.1387 123.62 40.1772 123.907 40.254C124.194 40.3304 124.441 40.4407 124.648 40.5846L124.41 41.1598C124.199 41.0254 123.974 40.9238 123.734 40.8544C123.495 40.785 123.26 40.7498 123.03 40.7498C122.623 40.7498 122.317 40.8243 122.113 40.9728C121.91 41.1216 121.808 41.3134 121.808 41.5481C121.808 41.7207 121.865 41.8608 121.98 41.9688C122.096 42.0764 122.238 42.1606 122.408 42.2206C122.578 42.2806 122.81 42.3439 123.102 42.411C123.48 42.5022 123.785 42.593 124.015 42.6842C124.245 42.7751 124.443 42.9142 124.608 43.1013C124.773 43.2883 124.856 43.5398 124.856 43.8563C124.856 44.1201 124.784 44.3608 124.64 44.5787C124.496 44.797 124.278 44.9696 123.986 45.0967C123.694 45.2237 123.334 45.2871 122.908 45.2871C122.529 45.2871 122.164 45.2288 121.811 45.1111Z" fill="#1D1D1B"/>
<path d="M130.933 42.7884C131.173 42.5943 131.292 42.3151 131.292 41.9506C131.292 41.5862 131.173 41.307 130.933 41.1129C130.693 40.9188 130.346 40.8219 129.891 40.8219H128.668V43.0794H129.891C130.346 43.0794 130.693 42.9825 130.933 42.7884ZM131.45 40.6636C131.824 40.9754 132.011 41.4042 132.011 41.9506C132.011 42.4971 131.824 42.9262 131.45 43.2377C131.077 43.5495 130.564 43.705 129.912 43.705H128.668V45.2294H127.95V40.1963H129.912C130.564 40.1963 131.077 40.3518 131.45 40.6636Z" fill="#1D1D1B"/>
<path d="M138.471 44.3953C138.766 44.2277 138.999 43.9964 139.169 43.7017C139.339 43.4067 139.424 43.0771 139.424 42.7127C139.424 42.3486 139.339 42.0191 139.169 41.7241C138.999 41.4294 138.766 41.1981 138.471 41.0304C138.177 40.8625 137.845 40.7787 137.476 40.7787C137.107 40.7787 136.773 40.8625 136.473 41.0304C136.174 41.1981 135.939 41.4294 135.769 41.7241C135.598 42.0191 135.514 42.3486 135.514 42.7127C135.514 43.0771 135.598 43.4067 135.769 43.7017C135.939 43.9964 136.174 44.2277 136.473 44.3953C136.773 44.5633 137.107 44.6471 137.476 44.6471C137.845 44.6471 138.177 44.5633 138.471 44.3953ZM136.103 44.9525C135.696 44.7299 135.376 44.4218 135.143 44.0286C134.911 43.6357 134.794 43.1972 134.794 42.7127C134.794 42.2286 134.911 41.7901 135.143 41.3972C135.376 41.004 135.696 40.6959 136.103 40.4733C136.51 40.2503 136.968 40.1387 137.476 40.1387C137.979 40.1387 138.435 40.2503 138.841 40.4733C139.249 40.6959 139.568 41.0029 139.798 41.3935C140.028 41.7841 140.143 42.2239 140.143 42.7127C140.143 43.2015 140.028 43.6417 139.798 44.0323C139.568 44.4232 139.249 44.7299 138.841 44.9525C138.435 45.1755 137.979 45.2871 137.476 45.2871C136.968 45.2871 136.51 45.1755 136.103 44.9525Z" fill="#1D1D1B"/>
<path d="M147.605 40.1963V45.2297H147.016L143.996 41.4759V45.2297H143.278V40.1963H143.867L146.886 43.9497V40.1963H147.605Z" fill="#1D1D1B"/>
<path d="M151.816 40.1963H151.097V45.2297H151.816V40.1963Z" fill="#1D1D1B"/>
<path d="M158.603 44.4459C158.809 44.3118 158.912 44.1009 158.912 43.813C158.912 43.2521 158.502 42.9722 157.683 42.9722H156.029V44.6474H157.683C158.09 44.6474 158.397 44.58 158.603 44.4459ZM156.029 40.779V42.3895H157.503C157.872 42.3895 158.156 42.3211 158.355 42.1847C158.554 42.0479 158.653 41.8477 158.653 41.5842C158.653 41.3207 158.554 41.1202 158.355 40.9838C158.156 40.8473 157.872 40.779 157.503 40.779H156.029ZM159.386 43.0617C159.554 43.2752 159.638 43.5448 159.638 43.8706C159.638 44.3071 159.474 44.6427 159.145 44.8774C158.817 45.1121 158.339 45.2297 157.712 45.2297H155.311V40.1963H157.567C158.143 40.1963 158.587 40.3113 158.901 40.5416C159.215 40.7716 159.372 41.0904 159.372 41.4977C159.372 41.7616 159.311 41.9892 159.189 42.181C159.067 42.3727 158.902 42.5189 158.696 42.6195C158.989 42.7013 159.218 42.8484 159.386 43.0617Z" fill="#1D1D1B"/>
<path d="M163.534 40.1963H162.815V45.2297H163.534V40.1963Z" fill="#1D1D1B"/>
<path d="M167.029 40.1963H167.748V44.6038H170.472V45.2297H167.029V40.1963Z" fill="#1D1D1B"/>
<path d="M174.046 40.1963H173.327V45.2297H174.046V40.1963Z" fill="#1D1D1B"/>
<path d="M178.11 44.4282C178.199 44.5218 178.243 44.6381 178.243 44.7769C178.243 44.849 178.235 44.9184 178.218 44.9854C178.201 45.0525 178.169 45.1557 178.121 45.2948L177.783 46.2942H177.33L177.596 45.2228C177.505 45.1896 177.432 45.1332 177.377 45.0538C177.321 44.9747 177.294 44.8825 177.294 44.7769C177.294 44.6331 177.34 44.5157 177.431 44.4245C177.522 44.3337 177.637 44.2881 177.776 44.2881C177.91 44.2881 178.021 44.335 178.11 44.4282Z" fill="#1D1D1B"/>
<path d="M188.465 43.3959L187.38 40.9298L186.294 43.3959H188.465ZM188.717 43.9712H186.042L185.489 45.2297H184.749L187.027 40.1963H187.739L190.025 45.2297H189.27L188.717 43.9712Z" fill="#1D1D1B"/>
<path d="M193.527 44.9525C193.122 44.7299 192.805 44.4232 192.574 44.0323C192.345 43.6417 192.229 43.2015 192.229 42.7127C192.229 42.2239 192.345 41.7841 192.574 41.3935C192.805 41.0029 193.123 40.6959 193.531 40.4733C193.938 40.2503 194.393 40.1387 194.896 40.1387C195.289 40.1387 195.649 40.2047 195.975 40.3361C196.3 40.4682 196.578 40.6637 196.809 40.9225L196.341 41.3754C195.963 40.9778 195.491 40.7787 194.925 40.7787C194.551 40.7787 194.214 40.8625 193.912 41.0304C193.61 41.1981 193.374 41.4294 193.203 41.7241C193.033 42.0191 192.948 42.3483 192.948 42.7127C192.948 43.0771 193.033 43.4067 193.203 43.7017C193.374 43.9961 193.61 44.2277 193.912 44.3953C194.214 44.5633 194.551 44.6471 194.925 44.6471C195.486 44.6471 195.958 44.4456 196.341 44.043L196.809 44.4962C196.578 44.7547 196.299 44.9515 195.971 45.0856C195.643 45.22 195.282 45.2871 194.889 45.2871C194.386 45.2871 193.932 45.1755 193.527 44.9525Z" fill="#1D1D1B"/>
<path d="M200.637 44.9525C200.232 44.7299 199.914 44.4232 199.684 44.0323C199.455 43.6417 199.339 43.2015 199.339 42.7127C199.339 42.2239 199.455 41.7841 199.684 41.3935C199.914 41.0029 200.233 40.6959 200.641 40.4733C201.048 40.2503 201.503 40.1387 202.006 40.1387C202.399 40.1387 202.759 40.2047 203.085 40.3361C203.41 40.4682 203.688 40.6637 203.919 40.9225L203.451 41.3754C203.073 40.9778 202.6 40.7787 202.035 40.7787C201.661 40.7787 201.323 40.8625 201.022 41.0304C200.72 41.1981 200.484 41.4294 200.313 41.7241C200.143 42.0191 200.058 42.3483 200.058 42.7127C200.058 43.0771 200.143 43.4067 200.313 43.7017C200.484 43.9961 200.72 44.2277 201.022 44.3953C201.323 44.5633 201.661 44.6471 202.035 44.6471C202.596 44.6471 203.068 44.4456 203.451 44.043L203.919 44.4962C203.688 44.7547 203.409 44.9515 203.081 45.0856C202.753 45.22 202.392 45.2871 201.999 45.2871C201.496 45.2871 201.042 45.1755 200.637 44.9525Z" fill="#1D1D1B"/>
<path d="M210.564 44.6038V45.2294H206.912V40.1963H210.463V40.8219H207.631V42.3677H210.154V42.9789H207.631V44.6038H210.564Z" fill="#1D1D1B"/>
<path d="M214.189 45.1111C213.837 44.9934 213.56 44.8412 213.358 44.6545L213.625 44.0936C213.817 44.2659 214.062 44.4061 214.362 44.5143C214.661 44.622 214.969 44.6759 215.285 44.6759C215.702 44.6759 216.014 44.6052 216.22 44.4637C216.426 44.3222 216.529 44.1342 216.529 43.8995C216.529 43.7268 216.472 43.5864 216.36 43.4788C216.247 43.3711 216.108 43.2883 215.943 43.2307C215.778 43.1733 215.544 43.1083 215.242 43.0366C214.864 42.9454 214.558 42.8545 214.325 42.7633C214.093 42.6725 213.894 42.532 213.729 42.3426C213.564 42.1535 213.481 41.8981 213.481 41.5769C213.481 41.3084 213.552 41.0663 213.693 40.8507C213.834 40.6348 214.049 40.4625 214.336 40.3328C214.624 40.2034 214.981 40.1387 215.408 40.1387C215.704 40.1387 215.997 40.1772 216.284 40.254C216.572 40.3304 216.819 40.4407 217.025 40.5846L216.788 41.1598C216.577 41.0254 216.351 40.9238 216.112 40.8544C215.872 40.785 215.637 40.7498 215.408 40.7498C215 40.7498 214.695 40.8243 214.491 40.9728C214.287 41.1216 214.185 41.3134 214.185 41.5481C214.185 41.7207 214.243 41.8608 214.358 41.9688C214.473 42.0764 214.615 42.1606 214.785 42.2206C214.956 42.2806 215.187 42.3439 215.48 42.411C215.858 42.5022 216.162 42.593 216.392 42.6842C216.622 42.7751 216.82 42.9142 216.985 43.1013C217.151 43.2883 217.233 43.5398 217.233 43.8563C217.233 44.1201 217.161 44.3608 217.018 44.5787C216.874 44.797 216.656 44.9696 216.363 45.0967C216.071 45.2237 215.712 45.2871 215.285 45.2871C214.907 45.2871 214.541 45.2288 214.189 45.1111Z" fill="#1D1D1B"/>
<path d="M220.717 45.1111C220.364 44.9934 220.088 44.8412 219.886 44.6545L220.152 44.0936C220.344 44.2659 220.59 44.4061 220.889 44.5143C221.189 44.622 221.497 44.6759 221.813 44.6759C222.23 44.6759 222.541 44.6052 222.748 44.4637C222.954 44.3222 223.056 44.1342 223.056 43.8995C223.056 43.7268 223 43.5864 222.888 43.4788C222.775 43.3711 222.636 43.2883 222.471 43.2307C222.305 43.1733 222.072 43.1083 221.77 43.0366C221.391 42.9454 221.086 42.8545 220.853 42.7633C220.621 42.6725 220.422 42.532 220.257 42.3426C220.091 42.1535 220.009 41.8981 220.009 41.5769C220.009 41.3084 220.08 41.0663 220.221 40.8507C220.362 40.6348 220.577 40.4625 220.864 40.3328C221.152 40.2034 221.509 40.1387 221.935 40.1387C222.232 40.1387 222.525 40.1772 222.812 40.254C223.1 40.3304 223.347 40.4407 223.553 40.5846L223.316 41.1598C223.104 41.0254 222.879 40.9238 222.64 40.8544C222.4 40.785 222.165 40.7498 221.935 40.7498C221.528 40.7498 221.223 40.8243 221.019 40.9728C220.815 41.1216 220.713 41.3134 220.713 41.5481C220.713 41.7207 220.771 41.8608 220.886 41.9688C221.001 42.0764 221.143 42.1606 221.313 42.2206C221.484 42.2806 221.715 42.3439 222.007 42.411C222.385 42.5022 222.69 42.593 222.92 42.6842C223.15 42.7751 223.348 42.9142 223.513 43.1013C223.679 43.2883 223.761 43.5398 223.761 43.8563C223.761 44.1201 223.689 44.3608 223.545 44.5787C223.402 44.797 223.184 44.9696 222.891 45.0967C222.599 45.2237 222.24 45.2871 221.813 45.2871C221.435 45.2871 221.069 45.2288 220.717 45.1111Z" fill="#1D1D1B"/>
<path d="M227.586 40.1963H226.867V45.2297H227.586V40.1963Z" fill="#1D1D1B"/>
<path d="M234.373 44.4459C234.579 44.3118 234.683 44.1009 234.683 43.813C234.683 43.2521 234.273 42.9722 233.453 42.9722H231.8V44.6474H233.453C233.861 44.6474 234.167 44.58 234.373 44.4459ZM231.8 40.779V42.3895H233.274C233.642 42.3895 233.927 42.3211 234.125 42.1847C234.324 42.0479 234.424 41.8477 234.424 41.5842C234.424 41.3207 234.324 41.1202 234.125 40.9838C233.927 40.8473 233.642 40.779 233.274 40.779H231.8ZM235.157 43.0617C235.324 43.2752 235.409 43.5448 235.409 43.8706C235.409 44.3071 235.244 44.6427 234.916 44.8774C234.588 45.1121 234.11 45.2297 233.482 45.2297H231.081V40.1963H233.338C233.913 40.1963 234.358 40.3113 234.672 40.5416C234.985 40.7716 235.142 41.0904 235.142 41.4977C235.142 41.7616 235.081 41.9892 234.959 42.181C234.837 42.3727 234.673 42.5189 234.467 42.6195C234.759 42.7013 234.989 42.8484 235.157 43.0617Z" fill="#1D1D1B"/>
<path d="M239.304 40.1963H238.585V45.2297H239.304V40.1963Z" fill="#1D1D1B"/>
<path d="M242.799 40.1963H243.518V44.6038H246.242V45.2297H242.799V40.1963Z" fill="#1D1D1B"/>
<path d="M249.816 40.1963H249.097V45.2297H249.816V40.1963Z" fill="#1D1D1B"/>
<path d="M14.6442 27.6878L14.6086 37.7935L14.8886 37.823C16.0385 37.7854 17.0631 37.5619 17.9 37.1528C18.7057 36.7129 19.3242 36.1497 19.7551 35.401C20.217 34.621 20.4298 33.7802 20.455 32.754C20.4489 31.6968 20.2266 30.8585 19.7558 30.0839C19.3164 29.3401 18.7224 28.7527 17.9117 28.3221C17.0702 27.9226 16.0431 27.7109 14.8928 27.6863L14.6442 27.6878Z" fill="url(#paint0_radial_1162_4390)"/>
<path d="M44.4115 3.0821C43.2679 4.23911 42.686 5.76605 42.6636 7.28978C42.6729 8.90662 42.1844 10.4641 41.0718 11.5899L37.7335 14.9049C33.7358 11.6318 28.6888 9.67059 23.1245 9.6713C10.3796 9.68193 0.0560282 20.002 0.0667011 32.7505C0.0773737 45.499 10.3946 55.8254 23.1395 55.8148C35.8845 55.8041 46.208 45.4841 46.1973 32.7356C46.1948 26.8589 43.9884 21.5233 40.3591 17.4396L43.2647 14.5624C44.4701 13.3428 46.1465 12.9601 47.8574 13.168C50.1594 13.4658 52.6401 12.3944 53.9318 9.96167C54.8238 8.30859 54.8121 6.25645 53.9322 4.5824C52.8007 2.41228 50.7118 1.33592 48.5981 1.348C47.0748 1.32561 45.555 1.92508 44.4115 3.0821ZM46.4989 9.35117C45.3422 8.2073 45.3316 6.34172 46.506 5.15343C47.6496 3.99642 49.5459 4.01668 50.7026 5.16055C51.8593 6.30442 51.839 8.20127 50.6955 9.35828C50.1083 9.95243 49.3327 10.2367 48.5867 10.241C47.8407 10.2452 47.062 9.96983 46.4989 9.35117ZM9.64674 39.1944L9.67444 27.7205L9.66804 26.6012C9.65667 24.6112 11.2951 23.016 13.2536 23.036L39.2408 23.0118L39.2234 25.4062C39.2618 26.6808 38.211 27.744 36.9363 27.7202L32.8641 27.7124L32.8719 39.9634C32.8797 41.3315 31.7671 42.4572 30.3994 42.465L27.9126 42.4793L27.9215 27.7095L24.1292 27.7312C24.9768 29.1878 25.4216 30.8643 25.4323 32.7299C25.412 34.6267 24.9864 36.3083 24.0933 37.7748C23.2315 39.2722 21.9636 40.4299 20.3518 41.2476C18.8022 42.0649 17.0015 42.4483 15.0121 42.4597L12.8983 42.4718C11.0955 42.4821 9.65704 40.9978 9.64674 39.1944Z" fill="url(#paint1_radial_1162_4390)"/>
</g>
<defs>
<radialGradient id="paint0_radial_1162_4390" cx="0" cy="0" r="1" gradientUnits="userSpaceOnUse" gradientTransform="translate(49.7468 12.2532) rotate(134.665) scale(43.9668 43.9668)">
<stop stop-color="#4FAEE2"/>
<stop offset="0.02" stop-color="#4FAEE2"/>
<stop offset="1" stop-color="#138BC3"/>
</radialGradient>
<radialGradient id="paint1_radial_1162_4390" cx="0" cy="0" r="1" gradientUnits="userSpaceOnUse" gradientTransform="translate(49.7467 12.2538) rotate(134.665) scale(43.9668 43.9668)">
<stop stop-color="#4FAEE2"/>
<stop offset="0.02" stop-color="#4FAEE2"/>
<stop offset="1" stop-color="#138BC3"/>
</radialGradient>
<clipPath id="clip0_1162_4390">
<rect width="250" height="56" fill="white" transform="translate(0 0.5)"/>
</clipPath>
</defs>
</svg>
