<svg width="161" height="34" viewBox="0 0 161 34" fill="none" xmlns="http://www.w3.org/2000/svg">
<path d="M19.3557 17.0111L17.6279 18.7313C17.3644 18.9998 17.3672 19.4371 17.6358 19.7005L18.5463 20.6198C18.7926 20.8692 19.1334 20.9451 19.4859 20.9041C19.9654 20.8347 20.4737 21.0635 20.7406 21.5748C20.9266 21.8949 20.9295 22.3322 20.7366 22.661C20.3391 23.4356 19.3539 23.5422 18.7906 22.9831C18.5443 22.7337 18.4208 22.4377 18.4242 22.1132C18.4276 21.7888 18.3182 21.4706 18.0941 21.2352L17.1088 20.2376C16.8403 19.9741 16.403 19.9769 16.1214 20.2495L13.0581 23.3163C12.7905 23.5667 12.7933 24.004 13.0659 24.2856L16.5769 27.8015C16.7485 27.9725 16.8739 28.1919 16.9267 28.4276L17.1965 29.3762C17.2412 29.5756 17.4832 29.6356 17.626 29.5084L23.8774 23.2516C24.0483 23.08 24.1265 22.834 24.0514 22.5843L23.469 20.411C23.398 20.1794 23.2727 19.96 23.1011 19.789L20.325 17.0032C20.2018 16.8785 20.0142 16.8063 19.843 16.8066C19.6717 16.807 19.4944 16.8657 19.3557 17.0111Z" fill="url(#paint0_radial_6876_8210)"/>
<path d="M24.7784 15.4707C24.5402 15.7088 24.5397 16.0951 24.7779 16.3333C25.0177 16.5727 25.4047 16.5737 25.6432 16.3355C25.8825 16.0959 25.8827 15.7077 25.6432 15.468C25.405 15.2298 25.0177 15.2314 24.7784 15.4707Z" fill="#293889"/>
<path d="M16.2892 31.892C16.519 31.8927 16.7263 31.8798 16.9292 31.8489C17.0058 31.8491 17.0466 31.7816 17.0288 31.7095L16.9219 31.2766L16.2892 31.892Z" fill="url(#paint1_radial_6876_8210)"/>
<path d="M26.4234 16.0548C26.3789 16.409 26.5333 16.7597 26.7859 17.0121L27.9655 18.1917C28.2347 18.4609 28.6711 18.4609 28.9405 18.1917L29.8369 17.2952C29.9081 17.224 29.9474 17.126 29.9438 17.0253C29.8445 14.3835 29.0216 11.7642 27.4707 9.4913C27.3451 9.30727 27.0791 9.28615 26.9216 9.44366L20.8634 15.5018C20.5942 15.771 20.5942 16.2076 20.8634 16.4768L23.7852 19.3986C23.9571 19.5705 24.0809 19.7847 24.1438 20.0197L24.4373 21.1158L24.462 21.2077C24.5995 21.7202 25.2404 21.8919 25.6156 21.5167L27.4328 19.6993C27.702 19.4301 27.702 18.9937 27.4328 18.7245L26.1549 17.4466C25.9172 17.2087 25.5866 17.1123 25.2505 17.1237C24.8172 17.1388 24.3775 16.9247 24.1285 16.4809C23.9364 16.1386 23.9279 15.7056 24.1097 15.3576C24.5182 14.5752 25.5082 14.47 26.0745 15.0363C26.3526 15.3144 26.469 15.6928 26.4234 16.0548Z" fill="#293889"/>
<path d="M19.2216 21.6869C18.9681 21.9151 18.9809 22.3121 19.205 22.5474C19.4514 22.7968 19.8302 22.7881 20.0796 22.5417C20.315 22.3176 20.3203 21.9166 20.078 21.6853C19.9548 21.5606 19.8076 21.4984 19.6363 21.4987C19.4872 21.5131 19.3281 21.5678 19.2216 21.6869Z" fill="url(#paint2_radial_6876_8210)"/>
<path d="M8.36371 28.0135L7.49452 28.8823C7.32895 29.043 7.34164 29.298 7.53779 29.422C9.2054 30.5763 11.0734 31.3266 13.0024 31.6763L9.33357 28.0133C9.19076 27.8773 9.02145 27.7978 8.84351 27.8043C8.66558 27.8108 8.48488 27.8796 8.36371 28.0135Z" fill="url(#paint3_radial_6876_8210)"/>
<path d="M29.4727 18.7242C29.2035 18.9933 29.2033 19.4301 29.4726 19.699C29.5879 19.8143 29.7888 19.7499 29.812 19.5882C29.8437 19.3679 29.8709 19.1468 29.8923 18.9254C29.9149 18.694 29.637 18.5598 29.4727 18.7242Z" fill="#293889"/>
<path d="M11.5449 24.817L9.86745 26.5068C9.60396 26.7754 9.58867 27.2167 9.85719 27.4802L14.2444 31.8469C14.5588 31.8906 14.8833 31.894 15.2299 31.9115L15.244 31.8893L16.4085 30.7143C16.5795 30.5427 16.6576 30.2967 16.5826 30.0469L16.2659 28.8042C16.1949 28.5726 16.0696 28.3531 15.898 28.1822L12.5323 24.8051C12.391 24.6844 12.2216 24.6081 12.0322 24.6125C11.8609 24.6129 11.6837 24.6716 11.5449 24.817Z" fill="url(#paint4_radial_6876_8210)"/>
<path d="M23.5333 24.6616L17.8089 30.3813C17.6379 30.553 17.582 30.813 17.6348 31.0487L17.7383 31.4253C17.7789 31.6066 17.9565 31.7191 18.1418 31.6966C20.9399 31.1835 23.5955 29.8646 25.7577 27.7043C25.8502 27.6074 25.9427 27.5105 26.0353 27.4136L25.0984 26.4622L24.6886 24.9738C24.5973 24.6515 24.3228 24.4465 24.0206 24.4571C23.8493 24.4575 23.6721 24.5162 23.5333 24.6616Z" fill="url(#paint5_radial_6876_8210)"/>
<path d="M28.9399 20.2314C28.6707 19.9622 28.2341 19.9622 27.9649 20.2314L25.2773 22.919C25.1031 23.0932 25.035 23.3471 25.0989 23.5848L25.7653 26.0727L26.2635 26.5709C26.4136 26.7208 26.6648 26.7104 26.7976 26.545C28.1249 24.8955 29.035 23.0217 29.525 21.0634C29.5558 20.9405 29.5183 20.8097 29.4286 20.7201L28.9399 20.2314Z" fill="#293889"/>
<path d="M20.9982 8.29327C20.7611 8.53506 20.7635 8.92452 20.9988 9.16572C21.2406 9.40281 21.6301 9.40045 21.8671 9.15866C22.1019 8.92746 22.106 8.53388 21.8642 8.2968C21.7454 8.18149 21.5871 8.11854 21.4318 8.11737C21.2765 8.11619 21.1177 8.1809 20.9982 8.29327Z" fill="url(#paint6_linear_6876_8210)"/>
<path d="M13.4395 11.0947L11.7121 12.8203C11.4404 13.082 11.4509 13.5311 11.7301 13.7922L16.1256 18.2047C16.4048 18.4657 16.8364 18.4659 17.1081 18.2042L18.8355 16.4786C19.0965 16.1993 19.0967 15.7677 18.8175 15.5067L14.422 11.0942C14.2911 10.9583 14.1011 10.8826 13.9362 10.8873C13.7432 10.8853 13.5753 10.9638 13.4395 11.0947Z" fill="url(#paint7_linear_6876_8210)"/>
<path d="M13.8768 3.3284L16.1413 3.93574L17.4389 4.29429C17.5407 4.30404 17.629 4.37004 17.7172 4.43604L17.8801 4.62429C18.1593 4.88534 18.5909 4.88556 18.8519 4.60634L19.2246 4.23504C19.4196 4.04406 19.3364 3.71133 19.0726 3.63264C17.9476 3.36049 16.7779 3.21151 15.613 3.22742C15.034 3.22131 14.4588 3.2608 13.8768 3.3284Z" fill="url(#paint8_linear_6876_8210)"/>
<path d="M1.27652 17.1179C1.238 18.4338 1.3597 19.7553 1.68338 21.0217C1.75129 21.292 2.0876 21.3887 2.28127 21.1936L3.46036 20.0195C3.62301 19.8478 3.69822 19.5862 3.63666 19.35L3.46468 18.7099C3.40312 18.4737 3.27636 18.2674 3.10148 18.0876L1.88684 16.8807C1.80258 16.8079 1.72467 16.7693 1.63601 16.7681C1.4587 16.7657 1.2726 16.9064 1.27652 17.1179Z" fill="url(#paint9_radial_6876_8210)"/>
<path d="M10.5702 6.67194C10.3315 6.92745 10.3333 7.30731 10.5641 7.55207C10.8042 7.78143 11.1995 7.78895 11.4288 7.54885C11.6829 7.30265 11.6657 6.91347 11.4256 6.68412C11.3149 6.55404 11.1575 6.501 11.0124 6.49741C10.8425 6.49992 10.6849 6.55189 10.5702 6.67194Z" fill="url(#paint10_radial_6876_8210)"/>
<path d="M3.15114 21.4281L2.28196 22.297C2.18144 22.3982 2.14631 22.5406 2.20308 22.668C2.89416 24.5135 3.97934 26.2421 5.45519 27.7144C5.74974 28.0012 6.03535 28.2731 6.34162 28.5124C6.47547 28.6335 6.69196 28.6239 6.82207 28.5049L7.82137 27.517C8.07852 27.2403 8.08307 26.8132 7.82121 26.5471L5.00613 23.6614C4.82168 23.49 4.71125 23.2738 4.64521 23.0309L4.30886 21.7388C4.2277 21.4039 3.93347 21.218 3.63095 21.219C3.46782 21.2165 3.28712 21.2853 3.15114 21.4281Z" fill="url(#paint11_radial_6876_8210)"/>
<path d="M11.3167 3.87121C9.27008 4.50659 7.32991 5.62719 5.62267 7.26741C5.50799 7.38746 5.50118 7.57273 5.63664 7.69673L10.204 12.2891C10.481 12.5619 10.9103 12.5479 11.1737 12.2863L12.9121 10.5597C13.1755 10.2981 13.1709 9.85335 12.9092 9.58995L11.9829 8.65105C11.7428 8.42169 11.4034 8.32171 11.0544 8.34214C10.7146 8.34715 10.3846 8.23176 10.1384 7.97768C9.56286 7.39821 9.67431 6.41343 10.4663 6.00848C10.8128 5.81819 11.2636 5.83826 11.6027 6.04324C12.0495 6.31345 12.2549 6.7743 12.2194 7.21581C12.1843 7.55231 12.2789 7.88308 12.5251 8.13715L13.4454 9.05134C13.707 9.31473 14.1424 9.32548 14.4151 9.04847L17.3404 6.12459C17.6131 5.84758 17.6239 5.41217 17.3468 5.13946L17.3099 5.09609C17.2422 5.0341 17.1652 4.98751 17.0695 4.97174L12.8702 3.84254C12.6419 3.76764 12.4011 3.74829 12.151 3.74435C11.8761 3.7465 11.598 3.78879 11.3167 3.87121Z" fill="url(#paint12_radial_6876_8210)"/>
<path d="M10.2103 14.3179L4.85919 19.6739C4.68776 19.8583 4.61441 20.1047 4.68044 20.3477L5.29883 22.6414C5.35591 22.8695 5.4753 23.1005 5.65079 23.2571L8.35853 25.9652C8.62934 26.2461 9.07125 26.2417 9.32839 25.965L11.0165 24.2779C11.2826 24.016 11.2782 23.5741 11.0163 23.308L10.9241 23.2223C10.6949 22.9769 10.3536 22.8801 10.0214 22.899C9.63596 22.9299 9.24983 22.7591 8.98179 22.4159C8.66902 21.9987 8.65227 21.4026 8.94455 20.9835C9.40516 20.3414 10.3007 20.2851 10.8244 20.8173C11.0863 21.0834 11.206 21.4152 11.1804 21.7741C11.146 22.1183 11.2598 22.4738 11.489 22.7193L11.5485 22.7843C11.8252 23.0415 12.2523 23.046 12.5332 22.7752L15.593 19.7134C15.865 19.4278 15.8695 19.0007 15.5839 18.7287L11.1801 14.3178C11.0463 14.1966 10.877 14.1171 10.699 14.1236C10.5211 14.1301 10.3552 14.1899 10.2103 14.3179Z" fill="url(#paint13_radial_6876_8210)"/>
<path d="M20.3052 4.2383L19.3891 5.1331C19.1281 5.41231 19.1104 5.85459 19.3896 6.11565L20.4541 7.19184C20.6945 7.42862 21.0427 7.52773 21.3724 7.51819C21.8109 7.49028 22.2511 7.70098 22.5176 8.13758C22.7134 8.49753 22.7132 8.92915 22.5404 9.27436C22.1287 10.053 21.1364 10.1553 20.5741 9.58765C20.3056 9.34406 20.1835 8.98706 20.2089 8.63596C20.2343 8.28485 20.1404 7.93466 19.8893 7.68041L18.8569 6.65661C18.5951 6.3849 18.146 6.39534 17.8743 6.65709L14.9456 9.59552C14.6739 9.85727 14.6736 10.2889 14.9529 10.5499L19.359 14.9799C19.6382 15.241 20.0699 15.2412 20.3309 14.962L26.53 8.78071C26.6552 8.63237 26.6747 8.42869 26.5612 8.28217C26.3063 7.98234 26.0339 7.69316 25.7547 7.43211C24.2695 5.94154 22.5416 4.83883 20.6835 4.15119C20.6447 4.12692 20.571 4.12398 20.571 4.12398C20.4692 4.11423 20.3712 4.15007 20.3052 4.2383Z" fill="url(#paint14_linear_6876_8210)"/>
<path d="M9.52781 21.2518C9.28385 21.4867 9.29495 21.8738 9.52987 22.1178C9.76135 22.3482 10.1519 22.3507 10.3959 22.1157C10.6398 21.8808 10.6287 21.4937 10.3938 21.2497C10.2781 21.1345 10.1183 21.0738 9.95869 21.0708C9.79907 21.0677 9.643 21.136 9.52781 21.2518Z" fill="url(#paint15_radial_6876_8210)"/>
<path d="M4.63057 8.31641C2.92513 10.3365 1.87011 12.7078 1.46946 15.1801C1.44437 15.2912 1.47483 15.4148 1.57338 15.4955L4.03247 17.9714C4.46035 18.3774 4.81764 18.6566 5.19571 18.2749L9.67667 13.7875C9.94007 13.5259 9.95082 13.0905 9.6738 12.8178L5.16489 8.30279C5.09716 8.2408 4.99538 8.2003 4.91511 8.19385C4.81011 8.19349 4.70189 8.23327 4.63057 8.31641Z" fill="url(#paint16_radial_6876_8210)"/>
<path d="M40.3435 6.84948H37.1313V6.26323H44.2054V6.84948H40.9937V15.1857H40.3435V6.84948Z" fill="#E30613"/>
<path d="M51.0199 14.1404C51.6232 13.8006 52.0989 13.3308 52.4476 12.7317C52.7957 12.1327 52.97 11.4637 52.97 10.7245C52.97 9.9852 52.7957 9.31581 52.4476 8.71676C52.0989 8.1177 51.6232 7.6483 51.0199 7.30855C50.4163 6.96858 49.7409 6.79848 48.9931 6.79848C48.2452 6.79848 47.5678 6.96858 46.9602 7.30855C46.3526 7.6483 45.8746 8.1177 45.5264 8.71676C45.1776 9.31581 45.0037 9.9852 45.0037 10.7245C45.0037 11.4637 45.1776 12.1327 45.5264 12.7317C45.8746 13.3308 46.3526 13.8006 46.9602 14.1404C47.5678 14.4804 48.2452 14.6502 48.9931 14.6502C49.7409 14.6502 50.4163 14.4804 51.0199 14.1404ZM46.6225 14.6565C45.9169 14.2615 45.3625 13.7197 44.959 13.0313C44.5552 12.3432 44.3536 11.5741 44.3536 10.7245C44.3536 9.87487 44.5552 9.10572 44.959 8.41723C45.3625 7.72897 45.9169 7.18744 46.6225 6.79219C47.3276 6.39694 48.1178 6.19942 48.9931 6.19942C49.8683 6.19942 50.6588 6.39492 51.3639 6.7859C52.0692 7.17688 52.6238 7.71616 53.0276 8.40465C53.4307 9.09291 53.6329 9.86633 53.6329 10.7245C53.6329 11.5826 53.4307 12.356 53.0276 13.0441C52.6238 13.7326 52.0692 14.2723 51.3639 14.6628C50.6588 15.0538 49.8683 15.2493 48.9931 15.2493C48.1178 15.2493 47.3276 15.0518 46.6225 14.6565Z" fill="#E30613"/>
<path d="M56.196 14.9116C55.6053 14.6866 55.1444 14.3954 54.813 14.0384L55.106 13.5541C55.4206 13.8856 55.8432 14.1554 56.3744 14.3635C56.9054 14.5718 57.4642 14.6759 58.0505 14.6759C58.9001 14.6759 59.5421 14.5143 59.9751 14.1914C60.4085 13.8685 60.6253 13.4479 60.6253 12.9297C60.6253 12.5302 60.5105 12.2115 60.2813 11.9736C60.0517 11.7359 59.767 11.5529 59.4272 11.4253C59.087 11.2981 58.6282 11.1665 58.0505 11.0305C57.3962 10.8692 56.8715 10.7119 56.4765 10.5589C56.0812 10.4058 55.7455 10.1699 55.4696 9.85128C55.1932 9.53288 55.0552 9.10572 55.0552 8.57026C55.0552 8.13703 55.17 7.73976 55.3992 7.37866C55.6289 7.01757 55.9792 6.73085 56.4511 6.51806C56.9225 6.30594 57.511 6.19965 58.2163 6.19965C58.7091 6.19965 59.1933 6.27178 59.6692 6.41604C60.1452 6.56075 60.557 6.75624 60.9058 7.00251L60.6635 7.52517C60.3067 7.27867 59.9135 7.09172 59.4845 6.96431C59.0554 6.83668 58.6325 6.77309 58.2163 6.77309C57.3919 6.77309 56.7674 6.93892 56.3425 7.27013C55.9176 7.60179 55.7051 8.03075 55.7051 8.55767C55.7051 8.95719 55.8199 9.27582 56.0495 9.51378C56.2787 9.75151 56.5634 9.9342 56.9034 10.0616C57.2431 10.189 57.7065 10.3252 58.2927 10.4694C58.9468 10.631 59.4695 10.7881 59.8607 10.9411C60.2512 11.0941 60.5849 11.3258 60.8611 11.6359C61.137 11.9462 61.2752 12.3646 61.2752 12.8913C61.2752 13.3247 61.1586 13.7197 60.9249 14.0766C60.691 14.4336 60.3321 14.7185 59.8479 14.9307C59.3634 15.1432 58.7684 15.2493 58.0633 15.2493C57.4087 15.2493 56.7865 15.1369 56.196 14.9116Z" fill="#E30613"/>
<path d="M64.7625 14.6628C64.0615 14.2723 63.5092 13.7323 63.1056 13.0441C62.7018 12.3558 62.5002 11.5826 62.5002 10.7245C62.5002 9.8661 62.7018 9.09291 63.1056 8.40442C63.5092 7.71616 64.0615 7.17687 64.7625 6.78567C65.4636 6.39491 66.2516 6.19942 67.1269 6.19942C67.7726 6.19942 68.3677 6.30368 68.9114 6.51176C69.4552 6.71983 69.9183 7.0279 70.3008 7.43573L69.8929 7.85637C69.1791 7.15103 68.2656 6.79848 67.1525 6.79848C66.4047 6.79848 65.7249 6.96857 65.1131 7.30855C64.5012 7.6483 64.021 8.1177 63.6727 8.71675C63.3242 9.31581 63.1501 9.9852 63.1501 10.7245C63.1501 11.4637 63.3242 12.1327 63.6727 12.7317C64.021 13.3308 64.5012 13.8006 65.1131 14.1404C65.7249 14.4804 66.4047 14.65 67.1525 14.65C68.2571 14.65 69.1705 14.2932 69.8929 13.5795L70.3008 14.0002C69.9183 14.408 69.4532 14.7183 68.9051 14.9304C68.3571 15.1432 67.7641 15.2491 67.1269 15.2491C66.2516 15.2491 65.4636 15.0538 64.7625 14.6628Z" fill="#E30613"/>
<path d="M77.8782 12.1264L75.5328 6.97689L73.2006 12.1264H77.8782ZM78.1205 12.6744H72.9456L71.8111 15.1855H71.11L75.2144 6.26301H75.8644L79.9689 15.1855H79.2678L78.1205 12.6744Z" fill="#E30613"/>
<path d="M88.7138 6.26301V15.1855H88.1783L82.0985 7.43573V15.1855H81.4485V6.26301H81.9963L88.0635 14.0127V6.26301H88.7138Z" fill="#E30613"/>
<path d="M96.9616 12.1264L94.6162 6.97689L92.284 12.1264H96.9616ZM97.2038 12.6744H92.0289L90.8944 15.1855H90.1934L94.2978 6.26301H94.9478L99.0522 15.1855H98.3512L97.2038 12.6744Z" fill="#E30613"/>
<path d="M107.783 14.5992C108.607 14.5992 109.333 14.4356 109.962 14.1085C110.591 13.7813 111.076 13.3245 111.415 12.7382C111.755 12.1518 111.925 11.4808 111.925 10.7245C111.925 9.96834 111.755 9.29671 111.415 8.71046C111.076 8.12422 110.591 7.6674 109.962 7.34023C109.333 7.01307 108.607 6.84948 107.783 6.84948H104.953V14.5992H107.783ZM104.303 6.26301H107.834C108.76 6.26301 109.582 6.45446 110.3 6.83668C111.018 7.21912 111.577 7.74829 111.976 8.42374C112.375 9.0992 112.575 9.86633 112.575 10.7245C112.575 11.5826 112.375 12.3495 111.976 13.025C111.577 13.7006 111.018 14.2296 110.3 14.612C109.582 14.9945 108.76 15.1855 107.834 15.1855H104.303V6.26301Z" fill="#1D1D1B"/>
<path d="M115.33 6.26301H114.68V15.1855H115.33V6.26301Z" fill="#1D1D1B"/>
<path d="M124.668 10.7627H125.292V14.1022C124.901 14.4761 124.428 14.7608 123.871 14.9561C123.315 15.1518 122.726 15.2493 122.106 15.2493C121.222 15.2493 120.425 15.054 119.716 14.6628C119.006 14.2723 118.45 13.7326 118.046 13.0441C117.642 12.356 117.441 11.5826 117.441 10.7245C117.441 9.86633 117.642 9.09291 118.046 8.40465C118.45 7.71616 119.006 7.17688 119.716 6.7859C120.425 6.39514 121.226 6.19942 122.119 6.19942C122.773 6.19942 123.374 6.30369 123.922 6.51176C124.47 6.72006 124.94 7.02386 125.33 7.42315L124.923 7.85637C124.549 7.4827 124.13 7.21283 123.667 7.04722C123.204 6.88162 122.692 6.79848 122.131 6.79848C121.366 6.79848 120.676 6.96858 120.06 7.30855C119.444 7.64853 118.961 8.1177 118.613 8.71698C118.265 9.31604 118.091 9.9852 118.091 10.7245C118.091 11.4554 118.267 12.1201 118.62 12.7191C118.972 13.3182 119.454 13.7901 120.066 14.1341C120.678 14.4781 121.366 14.6502 122.131 14.6502C123.151 14.6502 123.996 14.3783 124.668 13.8346V10.7627Z" fill="#1D1D1B"/>
<path d="M128.483 6.26301H127.833V15.1855H128.483V6.26301Z" fill="#1D1D1B"/>
<path d="M133.168 6.84948H129.956V6.26323H137.03V6.84948H133.818V15.1857H133.168V6.84948Z" fill="#1D1D1B"/>
<path d="M142.85 12.1264L140.505 6.97689L138.172 12.1264H142.85ZM143.092 12.6744H137.917L136.783 15.1855H136.082L140.186 6.26301H140.836L144.941 15.1855H144.24L143.092 12.6744Z" fill="#1D1D1B"/>
<path d="M146.42 6.26301H147.07V14.5992H152.207V15.1855H146.42V6.26301Z" fill="#1D1D1B"/>
<path d="M159.866 14.5992V15.1855H153.709V6.26301H159.674V6.84948H154.359V10.3674H159.114V10.9411H154.359V14.5992H159.866Z" fill="#1D1D1B"/>
<path d="M38.3312 18.7319H37.973V21.2394H38.3312V18.7319Z" fill="#1D1D1B"/>
<path d="M41.4304 18.7322V21.2396H41.1367L39.6321 19.3699V21.2396H39.2739V18.7322H39.5678L41.0722 20.6019V18.7322H41.4304Z" fill="#1D1D1B"/>
<path d="M42.7315 19.0436V19.9177H43.9889V20.2258H42.7315V21.2394H42.3733V18.7319H44.1428V19.0436H42.7315Z" fill="#1D1D1B"/>
<path d="M46.2991 20.0251C46.4184 19.9271 46.4782 19.7874 46.4782 19.606C46.4782 19.4245 46.4184 19.2854 46.2991 19.1885C46.1796 19.0921 46.0063 19.0436 45.7796 19.0436H45.1707V20.1718H45.7796C46.0063 20.1718 46.1796 20.1231 46.2991 20.0251ZM46.489 21.2394L45.9481 20.4693C45.8812 20.474 45.8286 20.4765 45.7904 20.4765H45.1707V21.2394H44.8125V18.7319H45.7904C46.1151 18.7319 46.3706 18.8097 46.5569 18.9647C46.7434 19.1202 46.8364 19.3337 46.8364 19.606C46.8364 19.7995 46.7885 19.9642 46.693 20.1004C46.5975 20.2363 46.4616 20.3356 46.2847 20.3976L46.8793 21.2394H46.489Z" fill="#1D1D1B"/>
<path d="M49.2277 20.326L48.6869 19.0973L48.146 20.326H49.2277ZM49.3534 20.6125H48.0206L47.7447 21.2394H47.376L48.5114 18.7319H48.8662L50.0052 21.2394H49.6291L49.3534 20.6125Z" fill="#1D1D1B"/>
<path d="M50.8581 21.1805C50.6826 21.1219 50.5444 21.0459 50.4442 20.9529L50.5768 20.6736C50.6723 20.7596 50.7947 20.8295 50.9442 20.8832C51.0934 20.9369 51.2466 20.9637 51.4044 20.9637C51.612 20.9637 51.7673 20.9286 51.8699 20.8578C51.9726 20.7877 52.0239 20.6938 52.0239 20.5767C52.0239 20.4909 51.9958 20.421 51.9398 20.3673C51.8837 20.3136 51.8144 20.2723 51.7322 20.2437C51.6495 20.215 51.5333 20.1828 51.3828 20.1469C51.194 20.1015 51.0419 20.0563 50.9262 20.0109C50.8103 19.9655 50.7112 19.8957 50.6287 19.8013C50.5465 19.7069 50.5053 19.5797 50.5053 19.4197C50.5053 19.286 50.5404 19.1654 50.6107 19.0582C50.6813 18.9506 50.788 18.8645 50.9314 18.8C51.0747 18.7355 51.2527 18.7034 51.4653 18.7034C51.6131 18.7034 51.7589 18.7227 51.9021 18.7607C52.0454 18.7989 52.1686 18.8539 52.2713 18.9256L52.1531 19.2119C52.0479 19.1452 51.9358 19.0946 51.8165 19.0598C51.6967 19.0252 51.5799 19.0079 51.4653 19.0079C51.2624 19.0079 51.11 19.0449 51.0084 19.1189C50.9071 19.1928 50.8563 19.2885 50.8563 19.4056C50.8563 19.4914 50.8849 19.5613 50.9422 19.615C50.9997 19.6687 51.0705 19.7105 51.1554 19.7404C51.2401 19.7703 51.3554 19.802 51.501 19.8354C51.6897 19.8808 51.8414 19.9262 51.956 19.9714C52.0706 20.0168 52.169 20.0862 52.2515 20.1792C52.3337 20.2723 52.3751 20.3979 52.3751 20.5554C52.3751 20.6868 52.3393 20.8068 52.2674 20.9154C52.196 21.0241 52.0875 21.1102 51.9416 21.1733C51.796 21.2365 51.6169 21.2684 51.4044 21.2684C51.2156 21.2684 51.0336 21.2389 50.8581 21.1805Z" fill="#1D1D1B"/>
<path d="M53.6794 19.0436H52.8197V18.7319H54.8937V19.0436H54.034V21.2394H53.6794V19.0436Z" fill="#1D1D1B"/>
<path d="M56.9911 20.0251C57.1105 19.9271 57.1702 19.7874 57.1702 19.606C57.1702 19.4245 57.1105 19.2854 56.9911 19.1885C56.8716 19.0921 56.6984 19.0436 56.4716 19.0436H55.8627V20.1718H56.4716C56.6984 20.1718 56.8716 20.1231 56.9911 20.0251ZM57.181 21.2394L56.6402 20.4693C56.5732 20.474 56.5206 20.4765 56.4824 20.4765H55.8627V21.2394H55.5045V18.7319H56.4824C56.8071 18.7319 57.0626 18.8097 57.2489 18.9647C57.4354 19.1202 57.5284 19.3337 57.5284 19.606C57.5284 19.7995 57.4805 19.9642 57.385 20.1004C57.2895 20.2363 57.1536 20.3356 56.9768 20.3976L57.5713 21.2394H57.181Z" fill="#1D1D1B"/>
<path d="M58.5552 20.9817C58.3691 20.7904 58.2759 20.5158 58.2759 20.1577V18.7319H58.6343V20.1435C58.6343 20.6806 58.8691 20.9493 59.3396 20.9493C59.569 20.9493 59.7445 20.8832 59.8663 20.7507C59.9881 20.6181 60.049 20.4154 60.049 20.1435V18.7319H60.3964V20.1577C60.3964 20.5181 60.3034 20.7936 60.1171 20.9835C59.9308 21.1733 59.6706 21.2681 59.3362 21.2681C59.0017 21.2681 58.7415 21.1727 58.5552 20.9817Z" fill="#1D1D1B"/>
<path d="M61.8598 19.0436H61.0001V18.7319H63.0741V19.0436H62.2144V21.2394H61.8598V19.0436Z" fill="#1D1D1B"/>
<path d="M64.3647 19.0436H63.505V18.7319H65.579V19.0436H64.7193V21.2394H64.3647V19.0436Z" fill="#1D1D1B"/>
<path d="M66.4584 20.9817C66.2723 20.7904 66.1791 20.5158 66.1791 20.1577V18.7319H66.5375V20.1435C66.5375 20.6806 66.7723 20.9493 67.2428 20.9493C67.4722 20.9493 67.6477 20.8832 67.7695 20.7507C67.8913 20.6181 67.9522 20.4154 67.9522 20.1435V18.7319H68.2996V20.1577C68.2996 20.5181 68.2066 20.7936 68.0203 20.9835C67.834 21.1733 67.5738 21.2681 67.2394 21.2681C66.9049 21.2681 66.6447 21.1727 66.4584 20.9817Z" fill="#1D1D1B"/>
<path d="M70.7126 20.0251C70.8319 19.9271 70.8917 19.7874 70.8917 19.606C70.8917 19.4245 70.8319 19.2854 70.7126 19.1885C70.593 19.0921 70.4198 19.0436 70.1931 19.0436H69.5841V20.1718H70.1931C70.4198 20.1718 70.593 20.1231 70.7126 20.0251ZM70.9025 21.2394L70.3616 20.4693C70.2946 20.474 70.2421 20.4765 70.2039 20.4765H69.5841V21.2394H69.226V18.7319H70.2039C70.5285 18.7319 70.784 18.8097 70.9703 18.9647C71.1568 19.1202 71.2498 19.3337 71.2498 19.606C71.2498 19.7995 71.202 19.9642 71.1065 20.1004C71.011 20.2363 70.875 20.3356 70.6982 20.3976L71.2928 21.2394H70.9025Z" fill="#1D1D1B"/>
<path d="M73.8627 20.9279V21.2396H72.0428V18.7322H73.8124V19.0436H72.401V19.8139H73.6585V20.1181H72.401V20.9279H73.8627Z" fill="#1D1D1B"/>
<path d="M75.8989 20.215C75.8358 20.1529 75.8041 20.0741 75.8041 19.9786C75.8041 19.8878 75.8364 19.8107 75.9007 19.7476C75.9652 19.6844 76.0416 19.6525 76.1299 19.6525C76.2184 19.6525 76.2942 19.6844 76.3575 19.7476C76.4207 19.8107 76.4523 19.8878 76.4523 19.9786C76.4523 20.0741 76.4207 20.1529 76.3575 20.215C76.2942 20.277 76.2184 20.3082 76.1299 20.3082C76.0391 20.3082 75.962 20.277 75.8989 20.215Z" fill="#1D1D1B"/>
<path d="M79.6047 20.9279C79.8076 20.9279 79.986 20.8884 80.1401 20.8097C80.294 20.7309 80.4129 20.6205 80.4967 20.4783C80.5801 20.3363 80.6219 20.172 80.6219 19.9858C80.6219 19.7997 80.5801 19.6355 80.4967 19.4932C80.4129 19.3512 80.294 19.2407 80.1401 19.162C79.986 19.0831 79.8076 19.0436 79.6047 19.0436H78.9274V20.9279H79.6047ZM78.5695 18.7322H79.6262C79.8912 18.7322 80.1264 18.7845 80.3318 18.8897C80.5369 18.9946 80.6965 19.1422 80.81 19.3319C80.9234 19.5218 80.9801 19.7399 80.9801 19.9858C80.9801 20.2318 80.9234 20.4496 80.81 20.6396C80.6965 20.8295 80.5369 20.9769 80.3318 21.0821C80.1264 21.187 79.8912 21.2396 79.6262 21.2396H78.5695V18.7322Z" fill="#1D1D1B"/>
<path d="M83.1324 20.326L82.5915 19.0973L82.0507 20.326H83.1324ZM83.258 20.6125H81.9253L81.6494 21.2394H81.2806L82.4161 18.7319H82.7709L83.9099 21.2394H83.5337L83.258 20.6125Z" fill="#1D1D1B"/>
<path d="M84.7603 19.0436H83.9006V18.7319H85.9746V19.0436H85.1149V21.2394H84.7603V19.0436Z" fill="#1D1D1B"/>
<path d="M86.9435 18.7319H86.5853V21.2394H86.9435V18.7319Z" fill="#1D1D1B"/>
<path d="M89.1518 20.215C89.0887 20.1529 89.057 20.0741 89.057 19.9786C89.057 19.8878 89.0894 19.8107 89.1536 19.7476C89.2181 19.6844 89.2945 19.6525 89.3828 19.6525C89.4714 19.6525 89.5471 19.6844 89.6104 19.7476C89.6736 19.8107 89.7053 19.8878 89.7053 19.9786C89.7053 20.0741 89.6736 20.1529 89.6104 20.215C89.5471 20.277 89.4714 20.3082 89.3828 20.3082C89.292 20.3082 89.215 20.277 89.1518 20.215Z" fill="#1D1D1B"/>
<path d="M92.0069 21.1805C91.8314 21.1219 91.6932 21.0459 91.593 20.9529L91.7256 20.6736C91.8211 20.7596 91.9436 20.8295 92.093 20.8832C92.2422 20.9369 92.3954 20.9637 92.5532 20.9637C92.7608 20.9637 92.9161 20.9286 93.0187 20.8578C93.1214 20.7877 93.1727 20.6938 93.1727 20.5767C93.1727 20.4909 93.1446 20.421 93.0886 20.3673C93.0325 20.3136 92.9632 20.2723 92.881 20.2437C92.7983 20.215 92.6821 20.1828 92.5316 20.1469C92.3428 20.1015 92.1907 20.0563 92.075 20.0109C91.9591 19.9655 91.86 19.8957 91.7775 19.8013C91.6953 19.7069 91.6541 19.5797 91.6541 19.4197C91.6541 19.286 91.6892 19.1654 91.7595 19.0582C91.8301 18.9506 91.9368 18.8645 92.0802 18.8C92.2235 18.7355 92.4015 18.7034 92.6141 18.7034C92.7619 18.7034 92.9077 18.7227 93.0509 18.7607C93.1942 18.7989 93.3174 18.8539 93.4201 18.9256L93.3019 19.2119C93.1967 19.1452 93.0846 19.0946 92.9653 19.0598C92.8455 19.0252 92.7287 19.0079 92.6141 19.0079C92.4112 19.0079 92.2588 19.0449 92.1572 19.1189C92.0559 19.1928 92.0051 19.2885 92.0051 19.4056C92.0051 19.4914 92.0337 19.5613 92.091 19.615C92.1485 19.6687 92.2193 19.7105 92.3042 19.7404C92.3889 19.7703 92.5042 19.802 92.6498 19.8354C92.8385 19.8808 92.9902 19.9262 93.1048 19.9714C93.2194 20.0168 93.3178 20.0862 93.4003 20.1792C93.4825 20.2723 93.5239 20.3979 93.5239 20.5554C93.5239 20.6868 93.4882 20.8068 93.4162 20.9154C93.3448 21.0241 93.2363 21.1102 93.0904 21.1733C92.9448 21.2365 92.7657 21.2684 92.5532 21.2684C92.3644 21.2684 92.1824 21.2389 92.0069 21.1805Z" fill="#1D1D1B"/>
<path d="M96.0868 20.9279V21.2396H94.267V18.7322H96.0365V19.0436H94.6251V19.8139H95.8826V20.1181H94.6251V20.9279H96.0868Z" fill="#1D1D1B"/>
<path d="M98.3099 20.0251C98.4292 19.9271 98.489 19.7874 98.489 19.606C98.489 19.4245 98.4292 19.2854 98.3099 19.1885C98.1903 19.0921 98.0171 19.0436 97.7904 19.0436H97.1814V20.1718H97.7904C98.0171 20.1718 98.1903 20.1231 98.3099 20.0251ZM98.4997 21.2394L97.9589 20.4693C97.8919 20.474 97.8393 20.4765 97.8011 20.4765H97.1814V21.2394H96.8232V18.7319H97.8011C98.1258 18.7319 98.3813 18.8097 98.5676 18.9647C98.7541 19.1202 98.8471 19.3337 98.8471 19.606C98.8471 19.7995 98.7993 19.9642 98.7038 20.1004C98.6083 20.2363 98.4723 20.3356 98.2955 20.3976L98.89 21.2394H98.4997Z" fill="#1D1D1B"/>
<path d="M101.791 18.7322L100.691 21.2396H100.337L99.2335 18.7322H99.6205L100.523 20.7918L101.433 18.7322H101.791Z" fill="#1D1D1B"/>
<path d="M102.753 18.7319H102.395V21.2394H102.753V18.7319Z" fill="#1D1D1B"/>
<path d="M105.531 20.9279V21.2396H103.435V20.996L105.011 19.0436H103.46V18.7322H105.484V18.9757L103.915 20.9279H105.531Z" fill="#1D1D1B"/>
<path d="M106.544 18.7319H106.186V21.2394H106.544V18.7319Z" fill="#1D1D1B"/>
<path d="M108.752 20.215C108.689 20.1529 108.657 20.0741 108.657 19.9786C108.657 19.8878 108.69 19.8107 108.754 19.7476C108.818 19.6844 108.895 19.6525 108.983 19.6525C109.072 19.6525 109.147 19.6844 109.211 19.7476C109.274 19.8107 109.305 19.8878 109.305 19.9786C109.305 20.0741 109.274 20.1529 109.211 20.215C109.147 20.277 109.072 20.3082 108.983 20.3082C108.892 20.3082 108.815 20.277 108.752 20.215Z" fill="#1D1D1B"/>
<path d="M111.865 21.1016C111.663 20.9904 111.505 20.8376 111.39 20.643C111.276 20.4484 111.219 20.2293 111.219 19.9855C111.219 19.742 111.276 19.5231 111.39 19.3283C111.505 19.1337 111.664 18.9809 111.867 18.8697C112.07 18.7587 112.297 18.7032 112.547 18.7032C112.743 18.7032 112.922 18.7362 113.085 18.8018C113.247 18.8677 113.386 18.9647 113.5 19.0937L113.267 19.3193C113.079 19.1213 112.843 19.022 112.562 19.022C112.375 19.022 112.207 19.064 112.057 19.1476C111.906 19.2312 111.789 19.3463 111.704 19.4932C111.619 19.64 111.577 19.8044 111.577 19.9855C111.577 20.1673 111.619 20.3314 111.704 20.4783C111.789 20.625 111.906 20.7405 112.057 20.8239C112.207 20.9075 112.375 20.9493 112.562 20.9493C112.841 20.9493 113.076 20.8491 113.267 20.6482L113.5 20.874C113.386 21.0032 113.246 21.101 113.083 21.1679C112.919 21.2347 112.74 21.2681 112.544 21.2681C112.293 21.2681 112.067 21.2126 111.865 21.1016Z" fill="#1D1D1B"/>
<path d="M115.795 20.8239C115.942 20.7405 116.058 20.625 116.143 20.4783C116.228 20.3316 116.27 20.1673 116.27 19.9858C116.27 19.8044 116.228 19.64 116.143 19.4932C116.058 19.3465 115.942 19.2312 115.795 19.1476C115.649 19.064 115.483 19.022 115.299 19.022C115.115 19.022 114.949 19.064 114.799 19.1476C114.65 19.2312 114.533 19.3465 114.449 19.4932C114.364 19.64 114.321 19.8044 114.321 19.9858C114.321 20.1673 114.364 20.3316 114.449 20.4783C114.533 20.625 114.65 20.7405 114.799 20.8239C114.949 20.9075 115.115 20.9495 115.299 20.9495C115.483 20.9495 115.649 20.9075 115.795 20.8239ZM114.615 21.1016C114.412 20.9904 114.253 20.8372 114.137 20.6415C114.021 20.4455 113.963 20.2271 113.963 19.9858C113.963 19.7444 114.021 19.5263 114.137 19.3303C114.253 19.1344 114.412 18.9811 114.615 18.8699C114.818 18.7589 115.046 18.7032 115.299 18.7032C115.55 18.7032 115.777 18.7589 115.98 18.8699C116.183 18.9811 116.342 19.1339 116.456 19.3285C116.571 19.5231 116.628 19.7422 116.628 19.9858C116.628 20.2293 116.571 20.4484 116.456 20.643C116.342 20.8378 116.183 20.9904 115.98 21.1016C115.777 21.2126 115.55 21.2684 115.299 21.2684C115.046 21.2684 114.818 21.2126 114.615 21.1016Z" fill="#1D1D1B"/>
<path d="M119.716 21.2396L119.713 19.4128L118.806 20.9351H118.642L117.735 19.4236V21.2396H117.391V18.7322H117.685L118.731 20.4947L119.763 18.7322H120.057L120.06 21.2396H119.716Z" fill="#1D1D1B"/>
<path d="M122.489 20.0235C122.608 19.9267 122.668 19.7876 122.668 19.6062C122.668 19.4247 122.608 19.2856 122.489 19.1887C122.369 19.0921 122.196 19.0438 121.969 19.0438H121.36V20.1687H121.969C122.196 20.1687 122.369 20.1204 122.489 20.0235ZM122.746 18.9649C122.933 19.1202 123.026 19.3339 123.026 19.6062C123.026 19.8784 122.933 20.0923 122.746 20.2473C122.56 20.4026 122.305 20.4801 121.98 20.4801H121.36V21.2396H121.002V18.7322H121.98C122.305 18.7322 122.56 18.8099 122.746 18.9649Z" fill="#1D1D1B"/>
<path d="M125.571 20.9279V21.2396H123.751V18.7322H125.521V19.0436H124.109V19.8139H125.367V20.1181H124.109V20.9279H125.571Z" fill="#1D1D1B"/>
<path d="M126.933 19.0436H126.073V18.7319H128.147V19.0436H127.288V21.2394H126.933V19.0436Z" fill="#1D1D1B"/>
<path d="M130.578 20.9279V21.2396H128.758V18.7322H130.528V19.0436H129.116V19.8139H130.374V20.1181H129.116V20.9279H130.578Z" fill="#1D1D1B"/>
<path d="M133.471 18.7322V21.2396H133.177L131.673 19.3699V21.2396H131.315V18.7322H131.608L133.113 20.6019V18.7322H133.471Z" fill="#1D1D1B"/>
<path d="M136.247 20.9279V21.2396H134.151V20.996L135.727 19.0436H134.176V18.7322H136.2V18.9757L134.631 20.9279H136.247Z" fill="#1D1D1B"/>
<path d="M138.722 20.9279V21.2396H136.902V18.7322H138.671V19.0436H137.26V19.8139H138.517V20.1181H137.26V20.9279H138.722Z" fill="#1D1D1B"/>
<path d="M140.758 20.215C140.695 20.1529 140.663 20.0741 140.663 19.9786C140.663 19.8878 140.695 19.8107 140.76 19.7476C140.824 19.6844 140.9 19.6525 140.989 19.6525C141.077 19.6525 141.153 19.6844 141.216 19.7476C141.28 19.8107 141.311 19.8878 141.311 19.9786C141.311 20.0741 141.28 20.1529 141.216 20.215C141.153 20.277 141.077 20.3082 140.989 20.3082C140.898 20.3082 140.821 20.277 140.758 20.215Z" fill="#1D1D1B"/>
<path d="M144.901 20.326L144.36 19.0973L143.819 20.326H144.901ZM145.026 20.6125H143.693L143.418 21.2394H143.049L144.184 18.7319H144.539L145.678 21.2394H145.302L145.026 20.6125Z" fill="#1D1D1B"/>
<path d="M147.918 19.9714H148.262V20.9495C148.138 21.0522 147.993 21.1309 147.828 21.1857C147.664 21.2405 147.492 21.2681 147.313 21.2681C147.06 21.2681 146.831 21.2126 146.629 21.1016C146.425 20.9904 146.266 20.8376 146.15 20.643C146.034 20.4484 145.976 20.2293 145.976 19.9855C145.976 19.742 146.034 19.5224 146.15 19.3267C146.266 19.131 146.426 18.978 146.63 18.8681C146.834 18.7585 147.064 18.7032 147.32 18.7032C147.52 18.7032 147.702 18.7362 147.866 18.8018C148.03 18.8677 148.169 18.9638 148.283 19.0901L148.061 19.3123C147.861 19.1189 147.618 19.022 147.334 19.022C147.143 19.022 146.972 19.0634 146.82 19.1456C146.668 19.2281 146.549 19.3427 146.464 19.4896C146.378 19.6366 146.335 19.802 146.335 19.9855C146.335 20.1673 146.378 20.3316 146.464 20.4783C146.549 20.625 146.668 20.7405 146.82 20.8239C146.972 20.9075 147.142 20.9495 147.33 20.9495C147.555 20.9495 147.751 20.8956 147.918 20.7882V19.9714Z" fill="#1D1D1B"/>
<path d="M150.961 20.9279V21.2396H149.142V18.7322H150.911V19.0436H149.5V19.8139H150.757V20.1181H149.5V20.9279H150.961Z" fill="#1D1D1B"/>
<path d="M153.854 18.7322V21.2396H153.561L152.056 19.3699V21.2396H151.698V18.7322H151.992L153.496 20.6019V18.7322H153.854Z" fill="#1D1D1B"/>
<path d="M155.832 20.9279C156.034 20.9279 156.213 20.8884 156.367 20.8097C156.521 20.7309 156.64 20.6205 156.724 20.4783C156.807 20.3363 156.849 20.172 156.849 19.9858C156.849 19.7997 156.807 19.6355 156.724 19.4932C156.64 19.3512 156.521 19.2407 156.367 19.162C156.213 19.0831 156.034 19.0436 155.832 19.0436H155.154V20.9279H155.832ZM154.796 18.7322H155.853C156.118 18.7322 156.353 18.7845 156.559 18.8897C156.764 18.9946 156.923 19.1422 157.037 19.3319C157.15 19.5218 157.207 19.7399 157.207 19.9858C157.207 20.2318 157.15 20.4496 157.037 20.6396C156.923 20.8295 156.764 20.9769 156.559 21.0821C156.353 21.187 156.118 21.2396 155.853 21.2396H154.796V18.7322Z" fill="#1D1D1B"/>
<path d="M159.36 20.326L158.819 19.0973L158.278 20.326H159.36ZM159.485 20.6125H158.152L157.877 21.2394H157.508L158.643 18.7319H158.998L160.137 21.2394H159.761L159.485 20.6125Z" fill="#1D1D1B"/>
<path d="M70.3469 26.8973C69.1443 28.0976 69.1483 30.0454 70.3446 31.2444C71.5449 32.4471 73.4927 32.4431 74.6917 31.2468C75.8944 30.0465 75.8904 28.0987 74.6941 26.8996C74.0902 26.2985 73.3088 25.9985 72.5168 25.9986C71.7322 25.9982 70.9445 26.2973 70.3469 26.8973Z" fill="url(#paint17_radial_6876_8210)"/>
<path d="M76.7701 28.5132C76.628 28.695 76.4299 28.8192 76.2023 28.816L75.3685 28.8144L75.3677 29.3033L76.2736 29.3049C76.4896 29.3049 76.6805 29.4048 76.8325 29.556C76.9765 29.7 77.1747 29.7919 77.3943 29.7879C77.9099 29.7911 78.3157 29.2922 78.1466 28.744C78.0738 28.5128 77.8816 28.3183 77.6429 28.2475C77.5618 28.2176 77.4738 28.2033 77.3943 28.2037C77.1404 28.2057 76.9117 28.3239 76.7701 28.5132ZM76.9964 28.9978C76.9964 28.7818 77.1727 28.6019 77.3963 28.6015C77.6123 28.6015 77.7885 28.7818 77.7885 28.9978C77.7885 29.2138 77.6123 29.3936 77.3963 29.3936C77.1727 29.394 77.0004 29.2174 76.9964 28.9978Z" fill="url(#paint18_radial_6876_8210)"/>
<path d="M52.2419 29.0263C52.2419 30.7238 50.8658 32.0999 49.1683 32.0999C47.4708 32.0999 46.0947 30.7238 46.0947 29.0263C46.0947 27.3288 47.4708 25.9527 49.1683 25.9527C50.8658 25.9527 52.2419 27.3288 52.2419 29.0263Z" fill="url(#paint19_radial_6876_8210)"/>
<path d="M48.0708 27.729H51.3153V28.0472C51.3153 28.2166 51.178 28.3546 51.0094 28.3546H50.4675V29.9861C50.4675 30.1702 50.3178 30.3198 50.134 30.3198H49.805V28.3546H48.4744L48.0708 27.729Z" fill="white"/>
<path d="M47.3702 29.8861C47.3702 30.1254 47.5648 30.32 47.8041 30.32H48.0884C48.3524 30.32 48.5915 30.2661 48.7991 30.1598C49.0115 30.0513 49.1789 29.896 49.2968 29.6987C49.4141 29.5023 49.4737 29.2754 49.4737 29.0246C49.4737 28.7739 49.4141 28.5471 49.2968 28.3505C49.1789 28.153 49.0112 27.998 48.7991 27.8892C48.5913 27.7829 48.3522 27.729 48.0884 27.729H47.8516C47.588 27.729 47.3743 27.9427 47.3743 28.2063V28.3546L47.3702 29.8861ZM48.034 28.3523L48.072 28.3512C48.2246 28.3516 48.3587 28.3809 48.4713 28.4386C48.5805 28.4943 48.6623 28.5701 48.7211 28.6696C48.7807 28.7714 48.8099 28.8876 48.8099 29.0246C48.8099 29.1617 48.7807 29.2779 48.7214 29.3792C48.6625 29.479 48.5807 29.5547 48.4711 29.6109C48.3583 29.6686 48.223 29.6981 48.0691 29.6981H48.034V28.3523Z" fill="white"/>
<path d="M52.0026 25.0717C51.8488 25.2277 51.772 25.4278 51.7706 25.6305C51.7712 25.8438 51.7071 26.0523 51.5571 26.2054L50.9162 26.8433L51.2607 27.1928L51.8512 26.6001C52.0088 26.4411 52.2357 26.3872 52.4659 26.4162C52.7706 26.4546 53.1012 26.314 53.2734 25.985C53.3904 25.7659 53.3898 25.4976 53.2732 25.2765C53.1208 24.9857 52.8433 24.8406 52.5653 24.8365C52.3587 24.838 52.1564 24.9157 52.0026 25.0717ZM52.2819 25.9116C52.1297 25.7548 52.1304 25.5039 52.2842 25.3479C52.4409 25.1957 52.6851 25.1955 52.844 25.3531C52.9971 25.5031 52.9964 25.754 52.8426 25.91C52.7677 25.9866 52.6631 26.025 52.5598 26.0257C52.4633 26.0273 52.3584 25.9866 52.2819 25.9116Z" fill="url(#paint20_radial_6876_8210)"/>
<path d="M44.7295 29.0247C44.7295 30.7225 43.3531 32.0989 41.6553 32.0989C39.9574 32.0989 38.5811 30.7225 38.5811 29.0247C38.5811 27.3268 39.9574 25.9504 41.6553 25.9504C43.3531 25.9504 44.7295 27.3268 44.7295 29.0247Z" fill="url(#paint21_radial_6876_8210)"/>
<path d="M41.2814 30.3153H40.9527C40.7684 30.3153 40.619 30.1659 40.619 29.9816V28.682H41.0221C41.1653 28.682 41.2814 28.7981 41.2814 28.9413V30.3153Z" fill="white"/>
<path d="M40.5559 28.0422C40.5559 28.215 40.6957 28.355 40.8685 28.3555L41.6664 28.357V30.32H41.9951C42.1794 30.32 42.3288 30.1706 42.3288 29.9863V28.3548H42.8708C43.0393 28.3548 43.1764 28.2168 43.1764 28.0472V27.729H40.8691C40.6961 27.729 40.5559 27.8692 40.5559 28.0422Z" fill="white"/>
<path d="M38.8714 31.3632C38.7138 31.5248 38.4839 31.5815 38.257 31.5488C37.9507 31.5105 37.6217 31.6533 37.4493 31.9766C37.3306 32.1974 37.3312 32.4698 37.4484 32.6907C37.7117 33.1944 38.3515 33.2597 38.7164 32.8936C38.8735 32.7387 38.9511 32.5349 38.9489 32.3321C38.9506 32.1196 39.0119 31.9113 39.1655 31.7594L39.8022 31.1202L39.4611 30.7771L38.8714 31.3632ZM37.879 32.615C37.7241 32.4578 37.7251 32.2087 37.8788 32.0569C38.0328 31.8984 38.2819 31.8994 38.4404 32.0535C38.5954 32.2107 38.5943 32.4597 38.4372 32.6147C38.3619 32.6924 38.2594 32.7317 38.1598 32.7312C38.0602 32.7308 37.9567 32.6903 37.879 32.615Z" fill="url(#paint22_radial_6876_8210)"/>
<path d="M58.9769 31.1177L59.6138 31.7619C59.7664 31.9135 59.8283 32.1196 59.8317 32.3339C59.8276 32.5374 59.9095 32.7377 60.0659 32.8947C60.4309 33.261 61.0657 33.1923 61.329 32.6897C61.4502 32.4697 61.4477 32.1985 61.327 31.9769C61.1587 31.6515 60.8285 31.5101 60.5213 31.5534C60.2981 31.5789 60.0663 31.5221 59.9099 31.3651L59.3197 30.777L58.9769 31.1177ZM60.3401 32.6173C60.1837 32.4603 60.1871 32.2092 60.3441 32.0528C60.4956 31.9002 60.7467 31.9035 60.8994 32.0551C61.0558 32.212 61.0578 32.4594 60.9009 32.6158C60.8251 32.6921 60.7231 32.7304 60.6186 32.7302C60.5179 32.7355 60.4164 32.6931 60.3401 32.6173Z" fill="url(#paint23_radial_6876_8210)"/>
<path d="M59.8451 29.0277C59.8451 30.7244 58.4696 32.0998 56.7729 32.0998C55.0762 32.0998 53.7008 30.7244 53.7008 29.0277C53.7008 27.331 55.0762 25.9556 56.7729 25.9556C58.4696 25.9556 59.8451 27.331 59.8451 29.0277Z" fill="url(#paint24_radial_6876_8210)"/>
<path d="M55.8466 28.355C55.4771 28.355 55.1767 28.6554 55.1767 29.0248C55.1767 29.2037 55.2464 29.372 55.3729 29.4985C55.4994 29.625 55.6675 29.6947 55.8463 29.6947L55.8735 29.6942C56.2117 29.681 56.4998 29.3954 56.5155 29.0572C56.5251 28.8514 56.4418 28.6559 56.2872 28.5206C56.238 28.4777 56.1072 28.355 55.8466 28.355ZM55.8466 30.3205C55.4819 30.3205 55.132 30.1654 54.8868 29.8951C54.6417 29.625 54.5215 29.2606 54.5572 28.8952C54.617 28.282 55.1059 27.7944 55.7198 27.7353C55.7625 27.7312 55.8048 27.7294 55.8466 27.7294H58.982V28.0476C58.982 28.217 58.845 28.355 58.6764 28.355H58.1345V29.9868C58.1345 30.1706 57.9848 30.3202 57.8008 30.3202H57.472V28.355H56.955C57.0914 28.5797 57.1554 28.8381 57.1397 29.1026C57.1026 29.7318 56.6024 30.2526 55.9767 30.3142C55.9328 30.3182 55.8895 30.3205 55.8466 30.3205Z" fill="white"/>
<path d="M67.9886 29.0226C67.9886 30.7193 66.6131 32.0948 64.9164 32.0948C63.2196 32.0948 61.8441 30.7193 61.8441 29.0226C61.8441 27.3258 63.2196 25.9503 64.9164 25.9503C66.6131 25.9503 67.9886 27.3258 67.9886 29.0226Z" fill="url(#paint25_radial_6876_8210)"/>
<path d="M65.3069 30.3207C65.0676 30.3207 64.873 30.1261 64.873 29.8868V28.553H65.5368V29.6985H65.5718C65.7258 29.6985 65.861 29.6693 65.9738 29.6115C66.0835 29.5554 66.1653 29.4796 66.2241 29.3797C66.2835 29.2783 66.3127 29.1624 66.3127 29.0253C66.3127 28.888 66.2835 28.7718 66.2239 28.6703C66.165 28.5707 66.0833 28.495 65.9741 28.4391C65.8615 28.3813 65.7273 28.3521 65.5748 28.3516L64.718 28.3534V28.3519L64.4342 28.3516C64.2807 28.3516 64.1457 28.3811 64.0324 28.4391C63.9227 28.495 63.8412 28.5707 63.7825 28.6705C63.7228 28.7718 63.6936 28.888 63.6936 29.0253C63.6936 29.1624 63.7228 29.2783 63.7825 29.3801C63.841 29.4796 63.9227 29.5554 64.0324 29.6113C64.1457 29.6693 64.2809 29.6985 64.4344 29.6985H64.5787L64.6031 29.8405C64.6092 29.8753 64.6337 30.0551 64.5211 30.1888C64.4739 30.2448 64.3865 30.3113 64.2367 30.3113C64.0275 30.3113 63.8502 30.2351 63.7046 30.1607C63.5187 30.0657 63.3668 29.9347 63.2529 29.7713C63.2367 29.7479 63.2212 29.7239 63.2066 29.6992C63.0891 29.5028 63.0298 29.2761 63.0298 29.0253C63.0298 28.7743 63.0891 28.5474 63.2066 28.351C63.2212 28.3263 63.2367 28.3022 63.2531 28.2788C63.3671 28.1155 63.5187 27.9847 63.7046 27.8897C63.912 27.7834 64.151 27.7297 64.4153 27.7297H65.5912C65.855 27.7297 66.094 27.7834 66.3019 27.8897C66.514 27.9984 66.6816 28.1535 66.7998 28.351C66.9171 28.5476 66.9764 28.7745 66.9764 29.0253C66.9764 29.2761 66.9171 29.5028 66.7998 29.6994C66.6816 29.8967 66.5142 30.052 66.3019 30.1605C66.0943 30.2668 65.8552 30.3207 65.5912 30.3207H65.3069Z" fill="white"/>
<path d="M60.706 25.2777C60.594 25.4926 60.5923 25.766 60.711 25.9849C60.8837 26.3135 61.2075 26.4572 61.5161 26.4142C61.7451 26.386 61.973 26.4384 62.1317 26.6015L62.7202 27.1923L63.0665 26.8471L62.427 26.2054C62.2743 26.0527 62.2099 25.847 62.2093 25.6327C62.2093 25.429 62.1342 25.2239 61.9761 25.0715C61.8233 24.9187 61.6208 24.8382 61.4171 24.8382C61.1383 24.8368 60.8621 24.9854 60.706 25.2777ZM61.1358 25.9089C60.983 25.7562 60.9859 25.5041 61.1386 25.3514C61.2911 25.1933 61.5431 25.1961 61.6959 25.3488C61.8543 25.5066 61.8512 25.7534 61.6987 25.9115C61.6225 25.9905 61.5226 26.0279 61.4208 26.0279C61.3189 26.0279 61.2149 25.9852 61.1358 25.9089Z" fill="url(#paint26_radial_6876_8210)"/>
<path d="M74.2433 28.3505C74.1254 28.1532 73.958 27.9982 73.7452 27.8892C73.5373 27.7829 73.2982 27.729 73.0344 27.729H71.7709C71.6411 27.729 71.5238 27.8065 71.473 27.9258L70.6443 29.8684C70.5533 30.0821 70.7101 30.3194 70.9425 30.3194H71.2258C71.2359 30.3194 71.2451 30.3131 71.2487 30.3034L71.3824 29.9419C71.4164 29.8502 71.5038 29.7893 71.6015 29.7893H72.0907C72.1042 29.7893 72.1152 29.7783 72.1152 29.7648V29.2275H71.9159C71.7903 29.2269 71.7035 29.1015 71.7476 28.9837L71.7698 28.9246L71.7682 28.9213L71.9876 28.3492H73.0151C73.1693 28.3492 73.305 28.3786 73.4182 28.4366C73.5281 28.493 73.6104 28.5689 73.6692 28.6689C73.7292 28.7707 73.7582 28.8873 73.7582 29.0249C73.7582 29.1626 73.7292 29.2788 73.6692 29.3808C73.6104 29.481 73.5283 29.5569 73.4182 29.6131C73.305 29.6711 73.1693 29.7005 73.0151 29.7005H72.9787V28.5766C72.9787 28.5629 72.9677 28.5521 72.9542 28.5521H72.3412C72.3278 28.5521 72.3167 28.5629 72.3167 28.5766V29.8632C72.3167 30.1158 72.5217 30.3207 72.7742 30.3207H73.0344C73.2985 30.3207 73.5378 30.2668 73.7454 30.1605C73.958 30.0515 74.1254 29.8965 74.2433 29.6992C74.3606 29.5028 74.4202 29.2758 74.4202 29.0249C74.4202 28.7739 74.3606 28.5471 74.2433 28.3505Z" fill="white"/>
<defs>
<radialGradient id="paint0_radial_6876_8210" cx="0" cy="0" r="1" gradientUnits="userSpaceOnUse" gradientTransform="translate(16.6313 16.727) rotate(77.3633) scale(18.5789 18.5789)">
<stop stop-color="#E52126"/>
<stop offset="0.99" stop-color="#C01D1E"/>
<stop offset="1" stop-color="#C01D1E"/>
</radialGradient>
<radialGradient id="paint1_radial_6876_8210" cx="0" cy="0" r="1" gradientUnits="userSpaceOnUse" gradientTransform="translate(16.6314 16.727) rotate(77.3633) scale(18.5789 18.5789)">
<stop stop-color="#E52126"/>
<stop offset="0.99" stop-color="#C01D1E"/>
<stop offset="1" stop-color="#C01D1E"/>
</radialGradient>
<radialGradient id="paint2_radial_6876_8210" cx="0" cy="0" r="1" gradientUnits="userSpaceOnUse" gradientTransform="translate(16.6315 16.7269) rotate(77.3633) scale(18.5789 18.5789)">
<stop stop-color="#E52126"/>
<stop offset="0.99" stop-color="#C01D1E"/>
<stop offset="1" stop-color="#C01D1E"/>
</radialGradient>
<radialGradient id="paint3_radial_6876_8210" cx="0" cy="0" r="1" gradientUnits="userSpaceOnUse" gradientTransform="translate(9.32666 19.3424) rotate(148.851) scale(17.2941 17.2941)">
<stop stop-color="#F2A43C"/>
<stop offset="0.01" stop-color="#F2A43C"/>
<stop offset="1" stop-color="#D65914"/>
</radialGradient>
<radialGradient id="paint4_radial_6876_8210" cx="0" cy="0" r="1" gradientUnits="userSpaceOnUse" gradientTransform="translate(16.6312 16.727) rotate(77.3633) scale(18.5789)">
<stop stop-color="#E52126"/>
<stop offset="0.99" stop-color="#C01D1E"/>
<stop offset="1" stop-color="#C01D1E"/>
</radialGradient>
<radialGradient id="paint5_radial_6876_8210" cx="0" cy="0" r="1" gradientUnits="userSpaceOnUse" gradientTransform="translate(16.6314 16.727) rotate(77.3633) scale(18.5789 18.5789)">
<stop stop-color="#E52126"/>
<stop offset="0.99" stop-color="#C01D1E"/>
<stop offset="1" stop-color="#C01D1E"/>
</radialGradient>
<linearGradient id="paint6_linear_6876_8210" x1="20.2849" y1="9.45825" x2="26.7562" y2="5.34014" gradientUnits="userSpaceOnUse">
<stop stop-color="#138BC3"/>
<stop offset="1" stop-color="#095882"/>
</linearGradient>
<linearGradient id="paint7_linear_6876_8210" x1="13.6127" y1="15.6589" x2="31.0769" y2="4.99829" gradientUnits="userSpaceOnUse">
<stop stop-color="#138BC3"/>
<stop offset="1" stop-color="#095882"/>
</linearGradient>
<linearGradient id="paint8_linear_6876_8210" x1="9.16651" y1="8.37493" x2="26.6307" y2="-2.28573" gradientUnits="userSpaceOnUse">
<stop stop-color="#138BC3"/>
<stop offset="1" stop-color="#095882"/>
</linearGradient>
<radialGradient id="paint9_radial_6876_8210" cx="0" cy="0" r="1" gradientUnits="userSpaceOnUse" gradientTransform="translate(5.64339 17.2045) rotate(169.476) scale(17.3886)">
<stop stop-color="#F2A43C"/>
<stop offset="0.01" stop-color="#F2A43C"/>
<stop offset="1" stop-color="#D65914"/>
</radialGradient>
<radialGradient id="paint10_radial_6876_8210" cx="0" cy="0" r="1" gradientUnits="userSpaceOnUse" gradientTransform="translate(0.889095 7.47427) rotate(31.1593) scale(18.0075 18.0075)">
<stop stop-color="#368E35"/>
<stop offset="0.01" stop-color="#368E35"/>
<stop offset="1" stop-color="#94C237"/>
</radialGradient>
<radialGradient id="paint11_radial_6876_8210" cx="0" cy="0" r="1" gradientUnits="userSpaceOnUse" gradientTransform="translate(9.32686 19.3423) rotate(148.851) scale(17.2942)">
<stop stop-color="#F2A43C"/>
<stop offset="0.01" stop-color="#F2A43C"/>
<stop offset="1" stop-color="#D65914"/>
</radialGradient>
<radialGradient id="paint12_radial_6876_8210" cx="0" cy="0" r="1" gradientUnits="userSpaceOnUse" gradientTransform="translate(0.889092 7.47427) rotate(31.1593) scale(18.0075)">
<stop stop-color="#368E35"/>
<stop offset="0.01" stop-color="#368E35"/>
<stop offset="1" stop-color="#94C237"/>
</radialGradient>
<radialGradient id="paint13_radial_6876_8210" cx="0" cy="0" r="1" gradientUnits="userSpaceOnUse" gradientTransform="translate(9.32684 19.3425) rotate(148.851) scale(17.2942)">
<stop stop-color="#F2A43C"/>
<stop offset="0.01" stop-color="#F2A43C"/>
<stop offset="1" stop-color="#D65914"/>
</radialGradient>
<linearGradient id="paint14_linear_6876_8210" x1="12.7407" y1="14.2303" x2="30.2049" y2="3.56961" gradientUnits="userSpaceOnUse">
<stop stop-color="#138BC3"/>
<stop offset="1" stop-color="#095882"/>
</linearGradient>
<radialGradient id="paint15_radial_6876_8210" cx="0" cy="0" r="1" gradientUnits="userSpaceOnUse" gradientTransform="translate(14.5834 21.4266) rotate(165.828) scale(14.0026 14.0026)">
<stop stop-color="#F2A43C"/>
<stop offset="0.01" stop-color="#F2A43C"/>
<stop offset="1" stop-color="#D65914"/>
</radialGradient>
<radialGradient id="paint16_radial_6876_8210" cx="0" cy="0" r="1" gradientUnits="userSpaceOnUse" gradientTransform="translate(0.889033 7.47424) rotate(31.1593) scale(18.0075)">
<stop stop-color="#368E35"/>
<stop offset="0.01" stop-color="#368E35"/>
<stop offset="1" stop-color="#94C237"/>
</radialGradient>
<radialGradient id="paint17_radial_6876_8210" cx="0" cy="0" r="1" gradientUnits="userSpaceOnUse" gradientTransform="translate(73.4019 30.1677) rotate(41.9871) scale(5.35236)">
<stop stop-color="#368E35"/>
<stop offset="0.01" stop-color="#368E35"/>
<stop offset="1" stop-color="#94C237"/>
</radialGradient>
<radialGradient id="paint18_radial_6876_8210" cx="0" cy="0" r="1" gradientUnits="userSpaceOnUse" gradientTransform="translate(73.4018 30.1675) rotate(41.9871) scale(5.35236)">
<stop stop-color="#368E35"/>
<stop offset="0.01" stop-color="#368E35"/>
<stop offset="1" stop-color="#94C237"/>
</radialGradient>
<radialGradient id="paint19_radial_6876_8210" cx="0" cy="0" r="1" gradientUnits="userSpaceOnUse" gradientTransform="translate(49.0764 28.8088) rotate(-37.8167) scale(4.82511)">
<stop stop-color="#4FAEE2"/>
<stop offset="0.02" stop-color="#4FAEE2"/>
<stop offset="1" stop-color="#138BC3"/>
</radialGradient>
<radialGradient id="paint20_radial_6876_8210" cx="0" cy="0" r="1" gradientUnits="userSpaceOnUse" gradientTransform="translate(49.0763 28.8089) rotate(-37.8167) scale(4.82509)">
<stop stop-color="#4FAEE2"/>
<stop offset="0.02" stop-color="#4FAEE2"/>
<stop offset="1" stop-color="#138BC3"/>
</radialGradient>
<radialGradient id="paint21_radial_6876_8210" cx="0" cy="0" r="1" gradientUnits="userSpaceOnUse" gradientTransform="translate(41.789 28.5403) rotate(139.057) scale(4.68633)">
<stop stop-color="#3C4D9C"/>
<stop offset="0.01" stop-color="#3C4D9C"/>
<stop offset="1" stop-color="#242E5F"/>
</radialGradient>
<radialGradient id="paint22_radial_6876_8210" cx="0" cy="0" r="1" gradientUnits="userSpaceOnUse" gradientTransform="translate(41.789 28.5403) rotate(139.057) scale(4.68633)">
<stop stop-color="#293889"/>
<stop offset="0.01" stop-color="#293889"/>
<stop offset="1" stop-color="#242E5F"/>
</radialGradient>
<radialGradient id="paint23_radial_6876_8210" cx="0" cy="0" r="1" gradientUnits="userSpaceOnUse" gradientTransform="translate(56.7221 30.3453) rotate(55.4076) scale(6.60671)">
<stop stop-color="#F2A43C"/>
<stop offset="0.01" stop-color="#F2A43C"/>
<stop offset="1" stop-color="#D65914"/>
</radialGradient>
<radialGradient id="paint24_radial_6876_8210" cx="0" cy="0" r="1" gradientUnits="userSpaceOnUse" gradientTransform="translate(56.7221 30.3454) rotate(55.4077) scale(6.60673)">
<stop stop-color="#F2A43C"/>
<stop offset="0.01" stop-color="#F2A43C"/>
<stop offset="1" stop-color="#D65914"/>
</radialGradient>
<radialGradient id="paint25_radial_6876_8210" cx="0" cy="0" r="1" gradientUnits="userSpaceOnUse" gradientTransform="translate(65.0678 27.626) rotate(-93.0128) scale(5.35235)">
<stop stop-color="#C01D1E"/>
<stop offset="0.01" stop-color="#C01D1E"/>
<stop offset="1" stop-color="#E52126"/>
</radialGradient>
<radialGradient id="paint26_radial_6876_8210" cx="0" cy="0" r="1" gradientUnits="userSpaceOnUse" gradientTransform="translate(65.0677 27.6261) rotate(-93.0128) scale(5.35235)">
<stop stop-color="#C01D1E"/>
<stop offset="0.01" stop-color="#C01D1E"/>
<stop offset="1" stop-color="#E52126"/>
</radialGradient>
</defs>
</svg>
