<svg width="24" height="24" fill="none" xmlns="http://www.w3.org/2000/svg"><path fill-rule="evenodd" clip-rule="evenodd" d="M18.916 5.376a.75.75 0 0 1 .208 1.04l-1.58 2.369A9.488 9.488 0 0 1 21.5 16.5v.115a.385.385 0 0 1-.385.385H2.885a.385.385 0 0 1-.385-.385V16.5c0-3.177 1.56-5.99 3.955-7.715L4.876 6.416a.75.75 0 0 1 1.248-.832l1.615 2.423A9.46 9.46 0 0 1 12 7a9.46 9.46 0 0 1 4.26 1.007l1.616-2.423a.75.75 0 0 1 1.04-.208zM9 13a1 1 0 1 1-2 0 1 1 0 0 1 2 0zm7 1a1 1 0 1 0 0-2 1 1 0 0 0 0 2z" fill="currentColor"/></svg>