<svg width="24" height="24" fill="none" xmlns="http://www.w3.org/2000/svg"><path fill-rule="evenodd" clip-rule="evenodd" d="M3.25 5.6A.75.75 0 0 1 4 4.85h4.8A3.95 3.95 0 0 1 11.116 12 3.95 3.95 0 0 1 8.8 19.15H4a.75.75 0 0 1-.75-.75V5.6zm1.5 7.15v4.9H8.8a2.45 2.45 0 1 0 0-4.9H4.75zm4.05-1.5a2.45 2.45 0 1 0 0-4.9H4.75v4.9H8.8zM13.75 14.5A3.25 3.25 0 0 1 17 11.25h.5A2.75 2.75 0 0 1 20.25 14a1.75 1.75 0 0 1-1.75 1.75h-3.25v.135c0 1.03.835 1.865 1.865 1.865h.304c.621 0 1.173-.398 1.37-.987a.75.75 0 0 1 1.422.474 2.944 2.944 0 0 1-2.792 2.013h-.304a3.365 3.365 0 0 1-3.365-3.365V14.5zm1.518-.25H18.5a.25.25 0 0 0 .25-.25c0-.69-.56-1.25-1.25-1.25H17a1.75 1.75 0 0 0-1.732 1.5z" fill="currentColor"/><path d="M15 9.25a.75.75 0 0 0 0 1.5h4a.75.75 0 0 0 0-1.5h-4z" fill="#363538"/></svg>