<svg width="24" height="24" fill="none" xmlns="http://www.w3.org/2000/svg"><path fill-rule="evenodd" clip-rule="evenodd" d="M18.93 6.243c-1.274-.575-2.64-1-4.07-1.242a.062.062 0 0 0-.066.03c-.175.308-.37.71-.506 1.025a15.471 15.471 0 0 0-4.573 0A10.303 10.303 0 0 0 9.2 5.031a.065.065 0 0 0-.065-.03 16.643 16.643 0 0 0-4.07 1.242.058.058 0 0 0-.028.023c-2.593 3.812-3.303 7.53-2.954 11.201a.067.067 0 0 0 .026.046 16.692 16.692 0 0 0 4.994 2.484.065.065 0 0 0 .07-.022 11.63 11.63 0 0 0 1.022-1.636.062.062 0 0 0-.035-.086 11.01 11.01 0 0 1-1.56-.732.063.063 0 0 1-.007-.105c.105-.077.21-.157.31-.239a.062.062 0 0 1 .065-.008c3.273 1.47 6.817 1.47 10.051 0a.062.062 0 0 1 .066.008c.1.08.204.162.31.24a.063.063 0 0 1-.005.104 10.34 10.34 0 0 1-1.561.731.062.062 0 0 0-.034.087c.3.573.643 1.118 1.02 1.635a.064.064 0 0 0 .07.023 16.638 16.638 0 0 0 5.003-2.484.064.064 0 0 0 .026-.045c.417-4.245-.699-7.932-2.957-11.201a.05.05 0 0 0-.026-.024zm-8.41 7.007c0 1.105-.817 2-1.825 2s-1.825-.895-1.825-2 .817-2 1.825-2 1.825.895 1.825 2zm4.765 2c1.008 0 1.825-.895 1.825-2s-.817-2-1.825-2-1.825.895-1.825 2 .817 2 1.825 2z" fill="currentColor"/></svg>