<svg width="24" height="24" fill="none" xmlns="http://www.w3.org/2000/svg"><path d="M8.366 4.278a53.893 53.893 0 0 1 3.167 4.935c-3.99 1.063-7.516 1.04-7.895 1.04a8.581 8.581 0 0 1 4.728-5.975zM3.453 12.01v-.26c.369.011 4.512.066 8.774-1.214.25.477.478.965.695 1.453-.109.033-.228.065-.337.098-4.403 1.42-6.746 5.303-6.941 5.629a8.522 8.522 0 0 1-2.19-5.705zM18.605 6.61a8.503 8.503 0 0 1 1.93 5.314c-.281-.054-3.101-.629-5.943-.271-.065-.141-.12-.293-.184-.445a25.452 25.452 0 0 0-.564-1.236c3.145-1.28 4.577-3.124 4.761-3.362zM12 3.475c2.169 0 4.154.814 5.661 2.148-.152.217-1.442 1.941-4.479 3.08-1.4-2.57-2.95-4.675-3.189-5A8.687 8.687 0 0 1 12 3.475zM12 20.547a8.482 8.482 0 0 1-5.239-1.8c.152-.315 1.887-3.656 6.703-5.337.022-.01.032-.01.054-.022a35.304 35.304 0 0 1 1.822 6.475 8.4 8.4 0 0 1-3.34.684zM16.761 19.082c-.087-.52-.542-3.015-1.66-6.084 2.68-.423 5.022.271 5.315.369a8.468 8.468 0 0 1-3.655 5.715z" fill="currentColor"/></svg>