<svg width="24" height="24" fill="none" xmlns="http://www.w3.org/2000/svg"><path fill-rule="evenodd" clip-rule="evenodd" d="M2.804 5C2 6.392 2 8.262 2 12c0 3.739 0 5.608.804 7A6 6 0 0 0 5 21.196C6.392 22 8.262 22 12 22c3.739 0 5.608 0 7-.804A6.002 6.002 0 0 0 21.196 19C22 17.608 22 15.739 22 12c0-3.738 0-5.608-.804-7A6 6 0 0 0 19 2.804C17.608 2 15.739 2 12 2c-3.738 0-5.608 0-7 .804A6 6 0 0 0 2.804 5zm10.479 4.987c0-.734.613-1.329 1.37-1.329H17V6h-2.348c-2.269 0-4.108 1.785-4.108 3.987v2.089H8v2.658h2.543V21h2.74v-6.266h2.934l.392-2.658h-3.326V9.987z" fill="currentColor"/></svg>