<svg width="24" height="24" fill="none" xmlns="http://www.w3.org/2000/svg"><path d="M14.5 21.685C18.813 20.575 22 16.66 22 12c0-5.523-4.477-10-10-10S2 6.477 2 12c0 4.66 3.187 8.575 7.5 9.685v-2.417c-.833.169-2.7.203-3.5-1.011-.8-1.214-1.333-1.854-1.5-2.023.167-.337.8-.708 2 .506 1.5 1.517 3 1.727 3 1.011.088-.443.233-.9.757-.994-.978-.009-4.347-.419-4.757-4.569 0-2.528 1-3.034 1-3.034s-1-.506 0-3.035c0 0 .935-.155 1.5 0 .68.188 1.5 1.011 1.5 1.011s1-.505 2.5-.505 2.5.505 2.5.505.82-.823 1.5-1.01c.565-.157 1.5 0 1.5 0 1 2.528 0 3.034 0 3.034s1 .505 1 3.034c-.418 4.226-3.903 4.568-4.808 4.566.562.11.808.829.808 4.931z" fill="currentColor"/></svg>