<svg width="24" height="24" fill="none"
    xmlns="http://www.w3.org/2000/svg">
    <path d="M12 16a3.5 3.5 0 1 0 0-7 3.5 3.5 0 0 0 0 7z" fill="currentColor"/>
    <path fill-rule="evenodd" clip-rule="evenodd" d="M2 12c0-3.738 0-5.608.804-7A6 6 0 0 1 5 2.804C6.392 2 8.262 2 12 2c3.739 0 5.608 0 7 .804A6 6 0 0 1 21.196 5C22 6.392 22 8.262 22 12c0 3.739 0 5.608-.804 7A6.002 6.002 0 0 1 19 21.196C17.608 22 15.739 22 12 22c-3.738 0-5.608 0-7-.804A6 6 0 0 1 2.804 19C2 17.608 2 15.739 2 12zm10 5.5a5 5 0 1 0 0-10 5 5 0 0 0 0 10zM16.5 8a1.5 1.5 0 1 0 0-3 1.5 1.5 0 0 0 0 3z" fill="currentColor"/>
</svg>