<svg width="24" height="24" fill="none" xmlns="http://www.w3.org/2000/svg"><path fill-rule="evenodd" clip-rule="evenodd" d="M2 12c0-3.738 0-5.608.804-7A6 6 0 0 1 5 2.804C6.392 2 8.262 2 12 2c3.739 0 5.608 0 7 .804A6 6 0 0 1 21.196 5C22 6.392 22 8.262 22 12c0 3.739 0 5.608-.804 7A6.002 6.002 0 0 1 19 21.196C17.608 22 15.739 22 12 22c-3.738 0-5.608 0-7-.804A6 6 0 0 1 2.804 19C2 17.608 2 15.739 2 12zm11.025 6.6v-6.256a1.31 1.31 0 0 1 .498-.457 1.6 1.6 0 0 1 .755-.164c.28 0 .518.036.712.107a.81.81 0 0 1 .447.392c.103.185.154.454.154.808v5.57H18.5v-5.562c0-.642-.072-1.181-.215-1.617-.137-.44-.337-.795-.6-1.061a2.255 2.255 0 0 0-.927-.58 3.656 3.656 0 0 0-1.175-.18 3.57 3.57 0 0 0-1.468.294 3.085 3.085 0 0 0-1.171.899l-.099-1.03h-2.711V18.6h2.891zM8.4 9.763V18.6H5.5V9.763h2.9zM7 8.6a1.6 1.6 0 1 0 0-3.2 1.6 1.6 0 0 0 0 3.2z" fill="currentColor"/></svg>