<svg width="24" height="24" fill="none" xmlns="http://www.w3.org/2000/svg"><path fill-rule="evenodd" clip-rule="evenodd" d="m3.104 20.75.87-2.608-.932-1.863a9.866 9.866 0 0 1 1.38-10.887c3.687-4.24 10.166-4.55 14.24-.679l.284.27a9.81 9.81 0 0 1 3.032 7.766c-.414 6.214-6.438 10.474-12.435 8.795l-2.24-.627-2.695 1.197c-.881.392-1.809-.45-1.503-1.364zm14.22-9.787a.832.832 0 0 0-1.177-1.177L13.3 12.632l-2.761-1.84a.832.832 0 0 0-1.05.103L6.714 13.67a.832.832 0 0 0 1.177 1.177l2.292-2.292 2.762 1.84c.33.221.77.178 1.05-.103l3.33-3.33z" fill="currentColor"/></svg>