<svg width="24" height="24" fill="none" xmlns="http://www.w3.org/2000/svg"><path d="M9.625 6.782c-1.04 0-1.89-.85-1.89-1.891 0-1.04.85-1.891 1.89-1.891 1.041 0 1.891.85 1.891 1.89v1.892h-1.89zM4.89 16.265c1.042 0 1.892-.85 1.892-1.89v-1.891H4.89c-1.04 0-1.891.85-1.891 1.89 0 1.041.85 1.891 1.89 1.891zM9.625 12.484c-1.04 0-1.89.85-1.89 1.89v4.735c0 1.04.85 1.891 1.89 1.891 1.041 0 1.891-.85 1.891-1.89v-4.735c0-1.041-.85-1.891-1.89-1.891zM11.516 9.625c0-1.04-.85-1.89-1.89-1.89H4.89C3.85 7.735 3 8.585 3 9.625c0 1.041.85 1.891 1.89 1.891h4.735c1.041 0 1.891-.85 1.891-1.89zM17.218 9.625c0-1.04.85-1.89 1.891-1.89 1.04 0 1.891.85 1.891 1.89 0 1.041-.85 1.891-1.89 1.891h-1.892v-1.89zM14.375 11.516c1.04 0 1.89-.85 1.89-1.89V4.89c0-1.04-.85-1.891-1.89-1.891-1.041 0-1.891.85-1.891 1.89v4.735c0 1.041.85 1.891 1.89 1.891zM14.375 17.218c1.04 0 1.89.85 1.89 1.891 0 1.04-.85 1.891-1.89 1.891-1.041 0-1.891-.85-1.891-1.89v-1.892h1.89zM12.484 14.374c0 1.041.85 1.891 1.89 1.891h4.735c1.04 0 1.891-.85 1.891-1.89 0-1.041-.85-1.891-1.89-1.891h-4.735c-1.041 0-1.891.85-1.891 1.89z" fill="currentColor"/></svg>