<svg width="24" height="24" fill="none" xmlns="http://www.w3.org/2000/svg"><path d="M20.978 16.635c-.078-.264-.454-.45-.454-.45l-.093-.05a7.238 7.238 0 0 1-1.648-1.096 5.647 5.647 0 0 1-.955-1.105 4.198 4.198 0 0 1-.527-1.103c-.035-.142-.03-.199 0-.273.025-.063.098-.121.131-.15.211-.152.551-.376.76-.512.182-.12.337-.222.428-.287.294-.209.495-.421.613-.651.153-.296.172-.623.052-.943-.16-.433-.558-.691-1.064-.691-.113 0-.228.013-.344.038-.29.064-.564.169-.794.26a.024.024 0 0 1-.034-.025c.024-.579.053-1.357-.011-2.095-.056-.668-.192-1.232-.413-1.723a4.617 4.617 0 0 0-.738-1.122 4.554 4.554 0 0 0-1.166-.953C13.918 3.237 13.003 3 12.001 3c-1 0-1.913.237-2.718.704a4.597 4.597 0 0 0-1.168.953 4.619 4.619 0 0 0-.738 1.122c-.222.491-.356 1.053-.413 1.723-.063.742-.037 1.458-.01 2.095 0 .02-.018.032-.036.025a5.304 5.304 0 0 0-.794-.26 1.63 1.63 0 0 0-.344-.038c-.504 0-.902.258-1.065.69-.12.322-.1.648.052.944.12.23.32.442.613.651.09.065.247.167.428.287.204.134.534.353.747.503a.446.446 0 0 1 .144.159c.03.076.036.133-.004.285-.065.22-.213.618-.523 1.091-.257.397-.579.767-.954 1.105a7.24 7.24 0 0 1-1.648 1.097c-.03.015-.065.032-.103.055 0 0-.373.193-.444.444-.105.37.173.717.455.903.464.304 1.028.467 1.355.556.091.025.174.048.248.07.047.016.165.061.215.128.064.083.071.186.094.301.035.196.115.437.353.604.261.182.592.195 1.012.213.44.017.985.038 1.61.248.29.097.554.262.856.452.635.396 1.426.89 2.775.89 1.35 0 2.146-.495 2.785-.894.303-.188.563-.351.846-.446.626-.21 1.172-.232 1.61-.249.421-.017.752-.028 1.013-.212.255-.179.327-.444.361-.644.019-.098.03-.187.086-.26a.49.49 0 0 1 .207-.123c.077-.025.163-.047.258-.074.327-.09.738-.194 1.237-.48.601-.347.643-.773.579-.983z" fill="currentColor"/></svg>