<svg width="24" height="24" fill="none" xmlns="http://www.w3.org/2000/svg"><path fill-rule="evenodd" clip-rule="evenodd" d="M3.27 11.456a660.733 660.733 0 0 1 9.65-4.191C17.511 5.338 18.466 5 19.085 5c.13 0 .439.026.645.182.155.13.207.313.232.443.026.13.052.416.026.65-.258 2.63-1.316 9.06-1.883 12.001-.233 1.25-.697 1.666-1.136 1.718-.954.078-1.702-.65-2.631-1.25-1.445-.962-2.271-1.561-3.69-2.498-1.626-1.094-.568-1.692.361-2.656.232-.26 4.49-4.139 4.567-4.503 0-.052.026-.208-.077-.286-.104-.078-.232-.052-.336-.026-.155.026-2.477 1.588-6.992 4.66-.671.468-1.265.676-1.806.676-.594 0-1.73-.338-2.58-.625-1.033-.338-1.858-.52-1.781-1.093.077-.312.49-.625 1.264-.937z" fill="currentColor"/></svg>