<svg width="24" height="24" fill="none" xmlns="http://www.w3.org/2000/svg"><path fill-rule="evenodd" clip-rule="evenodd" d="M12.422 4.258c-2.519-.123-5.079 1.092-6.12 4.286-1.497 4.588.072 9.55 4.147 10.875 1.818.591 3.855.362 5.397-.462 1.532-.818 2.487-2.161 2.398-3.799-.058-1.067-.688-1.94-1.636-2.551-.259 1.687-1.297 3.424-3.164 3.75-1.613.283-2.926-.099-3.757-.925a2.937 2.937 0 0 1-.711-3.069c.373-1.07 1.334-1.691 2.364-1.986 1.04-.298 2.273-.308 3.45-.07l.165.036c-.207-.582-.554-1.082-1.036-1.416-1.658-1.15-3.15-.34-3.686.2a.75.75 0 1 1-1.064-1.058c.84-.845 3.134-2.089 5.605-.374 1.106.767 1.682 1.976 1.85 3.217 1.63.768 3.008 2.133 3.118 4.165.128 2.368-1.289 4.188-3.19 5.204-1.892 1.01-4.351 1.285-6.567.565C4.802 19.16 3.24 13.09 4.875 8.079c1.282-3.928 4.527-5.47 7.62-5.319 3.025.149 6.077 1.936 6.97 4.828a.75.75 0 1 1-1.433.443c-.655-2.123-3.022-3.645-5.61-3.773zm2.749 7.692a7.1 7.1 0 0 0-.68-.172c-.988-.2-1.972-.179-2.738.04-.775.223-1.21.605-1.36 1.039-.184.526-.06 1.1.352 1.511.407.405 1.187.732 2.44.512.98-.171 1.747-1.16 1.946-2.538a4.57 4.57 0 0 0 .04-.392z" fill="currentColor"/></svg>