<svg width="24" height="24" fill="none" xmlns="http://www.w3.org/2000/svg"><path d="M20 8.335C19.94 19.417 8.226 21.77 2.97 19.02c-.165-.086-.117-.324.066-.357 2.078-.38 3.479-1.138 4.154-1.648.132-.1.07-.299-.093-.334-1.164-.255-2.46-1.016-2.994-2.582-.05-.149.094-.285.247-.246.694.178 1.16.126 1.426.027.123-.046.112-.195 0-.264-1.13-.698-2.913-2.166-2.82-3.586.01-.138.166-.199.282-.124.597.38.877.482 1.04.47.132-.011.11-.19.003-.268-.996-.726-1.651-2.351-.905-4.524.05-.147.245-.175.344-.054 2.337 2.831 6.183 3.343 8.06 3.236.118-.007.199-.121.18-.239-.766-4.717 4.856-5.704 6.927-3.41a.21.21 0 0 0 .263.043l1.761-1.057c.172-.103.372.082.282.261l-.548 1.096a.2.2 0 0 0 .179.29h.593c.053 0 .106.02.14.06.153.194.228.643-1.497 2.38a.211.211 0 0 0-.06.145z" fill="currentColor"/></svg>