<svg width="24" height="24" fill="none" xmlns="http://www.w3.org/2000/svg"><path fill-rule="evenodd" clip-rule="evenodd" d="M5.044 20.695 5.5 17.5l-.84-1.68a8.89 8.89 0 0 1 1.244-9.809c3.322-3.821 9.16-4.1 12.832-.612l.256.243a8.84 8.84 0 0 1 2.732 6.998c-.373 5.6-5.801 9.438-11.205 7.925L8.5 20l-3.203.915a.2.2 0 0 1-.253-.22zM8.81 8.497l-.37.869c-.298.697-.397 1.474-.108 2.176a8.606 8.606 0 0 0 2.24 3.137 8.568 8.568 0 0 0 3.368 1.862c.728.205 1.486.016 2.141-.363l.844-.487a.985.985 0 0 0 .178-1.573l-.647-.62a.967.967 0 0 0-1.28-.035c-.42.35-1.334.815-1.812.549-.285-.159-.963-.681-1.182-.877-.255-.227-.886-.9-1.094-1.199-.264-.382.037-1.25.22-1.677l.115-.264a.982.982 0 0 0-.249-1.121l-.81-.725a.979.979 0 0 0-1.554.348z" fill="currentColor"/></svg>