<svg width="24" height="24" fill="none" xmlns="http://www.w3.org/2000/svg"><path d="M13.602 4.322a1 1 0 0 0-.852.99v4.938a1 1 0 0 0 1 1h6a1 1 0 0 0 1-1V4.411a1 1 0 0 0-1.148-.989l-6 .9zM4.066 6.097a1 1 0 0 0-.816.983v3.17a1 1 0 0 0 1 1h6a1 1 0 0 0 1-1V5.955a1 1 0 0 0-1.184-.983l-6 1.125zM3.25 16.92a1 1 0 0 0 .816.983l6 1.125a1 1 0 0 0 1.184-.983V13.75a1 1 0 0 0-1-1h-6a1 1 0 0 0-1 1v3.17zM13.602 19.678a1 1 0 0 1-.852-.99V13.75a1 1 0 0 1 1-1h6a1 1 0 0 1 1 1v5.839a1 1 0 0 1-1.148.989l-6-.9z" fill="currentColor"/></svg>